<?xml version="1.0" encoding="UTF-8"?>
<svg version="1.1" xmlns="http://www.w3.org/2000/svg" width="559" height="432">
<path d="M0 0 C184.47 0 368.94 0 559 0 C559 142.56 559 285.12 559 432 C374.53 432 190.06 432 0 432 C0 289.44 0 146.88 0 0 Z " fill="#F6F6F6" transform="translate(0,0)"/>
<path d="M0 0 C6.27 0 12.54 0 19 0 C21.64 13.53 24.28 27.06 27 41 C35.89849977 44.19156526 35.89849977 44.19156526 41 44 C43.00160204 41.72948044 44.70937859 39.52961319 46.4375 37.0625 C47.49237492 35.60466154 48.54840732 34.14766007 49.60546875 32.69140625 C50.15509277 31.92715332 50.7047168 31.16290039 51.27099609 30.37548828 C54.1921068 26.3621577 57.22340979 22.43402315 60.25 18.5 C61.35952742 17.05220013 62.46891617 15.60429397 63.578125 14.15625 C64.37734375 13.1146875 65.1765625 12.073125 66 11 C70.62675657 12.3922459 74.64686231 14.29520984 78.875 16.625 C80.02742188 17.25664063 81.17984375 17.88828125 82.3671875 18.5390625 C83.23601562 19.02117187 84.10484375 19.50328125 85 20 C84.36759151 27.80629235 82.14872846 35.12126654 80 42.625 C79.26681901 45.19942158 78.53876743 47.77516854 77.8125 50.3515625 C77.48894531 51.48416504 77.16539063 52.61676758 76.83203125 53.78369141 C76.03961905 56.84684817 75.46797426 59.87249023 75 63 C75.763125 63.268125 76.52625 63.53625 77.3125 63.8125 C79.87380884 64.94424112 81.19692938 65.91223401 83 68 C86.3387869 66.75880987 89.17626412 65.36528915 92.10546875 63.34375 C92.88325684 62.81394531 93.66104492 62.28414062 94.46240234 61.73828125 C95.29980957 61.16464844 96.1372168 60.59101562 97 60 C100.75347849 57.47298559 104.52809746 54.98040409 108.3125 52.5 C109.28767578 51.84257813 110.26285156 51.18515625 111.26757812 50.5078125 C112.20666016 49.89679688 113.14574219 49.28578125 114.11328125 48.65625 C114.95673096 48.09744141 115.80018066 47.53863281 116.66918945 46.96289062 C119 46 119 46 121.12841797 46.68457031 C123.91607419 48.643857 126.37368505 50.8841275 128.8125 53.25 C129.32748047 53.71535156 129.84246094 54.18070313 130.37304688 54.66015625 C132.89286435 57.10913549 133.98239174 58.43653571 134.09375 62 C132.79565766 65.56048185 131.10803217 67.8314636 128.6875 70.75 C124.33175693 76.19224637 120.20878023 81.76189453 116.25 87.5 C115.70045654 88.26538086 115.15091309 89.03076172 114.5847168 89.81933594 C113.20222446 91.84905244 111.96882496 93.74331813 111 96 C111.35898825 98.86907771 111.35898825 98.86907771 113 101 C113.99 102.485 113.99 102.485 115 104 C122.90627455 103.31547406 130.5076365 101.70977194 138.25 100 C140.73433484 99.45814919 143.21870831 98.91647543 145.703125 98.375 C146.79270508 98.13523437 147.88228516 97.89546875 149.00488281 97.6484375 C151.66536395 97.0724481 154.32905838 96.52502515 157 96 C159.3972092 99.93827225 161.49133571 103.88619253 163.3125 108.125 C163.65925781 108.93195313 164.00601563 109.73890625 164.36328125 110.5703125 C165.13802679 113.52670344 165.05790095 115.13191297 164 118 C162.1640625 119.5625 162.1640625 119.5625 159.625 121 C153.92509975 124.39136545 148.45984647 128.04651845 143 131.8125 C141.35423137 132.94410453 139.7084017 134.07562028 138.0625 135.20703125 C137.35222656 135.6966333 136.64195312 136.18623535 135.91015625 136.69067383 C134.28214915 137.80659945 132.64226097 138.90515935 131 140 C131.14084796 141.79206547 131.28783701 143.58364917 131.4375 145.375 C131.51871094 146.37273437 131.59992188 147.37046875 131.68359375 148.3984375 C131.84965626 150.97927613 131.84965626 150.97927613 133 153 C135.34858531 153.7061703 135.34858531 153.7061703 138.22265625 154.18359375 C139.85678467 154.48970581 139.85678467 154.48970581 141.52392578 154.80200195 C142.69165527 155.01171631 143.85938477 155.22143066 145.0625 155.4375 C146.23796387 155.65559326 147.41342773 155.87368652 148.62451172 156.09838867 C150.9845271 156.5356504 153.34520256 156.96936537 155.70654297 157.39941406 C159.2693812 158.04912363 162.82860444 158.71640873 166.38696289 159.39013672 C169.2570325 159.93177743 172.1286586 160.46514229 175 161 C175 168.26 175 175.52 175 183 C172.39867187 183.48210937 169.79734375 183.96421875 167.1171875 184.4609375 C164.58509499 184.933228 162.05327881 185.40697391 159.52148438 185.88085938 C157.76818715 186.20822779 156.01460867 186.53409365 154.26074219 186.85839844 C151.73296022 187.32608114 149.20625485 187.7992424 146.6796875 188.2734375 C145.90132538 188.41623138 145.12296326 188.55902527 144.3210144 188.70614624 C140.07703145 189.50868745 136.07345858 190.52131754 132 192 C131.59256816 193.9862302 131.28181161 195.9920923 131 198 C130.86207031 198.72316406 130.72414062 199.44632813 130.58203125 200.19140625 C130.27939418 202.78355852 130.20023172 204.50239962 131 207 C133.47401802 209.04073991 135.93283888 210.40475895 138.8125 211.80859375 C139.534375 212.20175781 140.25625 212.59492188 141 213 C141 213.66 141 214.32 141 215 C141.65613281 215.2165625 142.31226563 215.433125 142.98828125 215.65625 C147.06516124 217.47524704 150.53978061 219.94494587 154.1875 222.5 C155.27321289 223.24830078 155.27321289 223.24830078 156.38085938 224.01171875 C161.70965521 227.70965521 161.70965521 227.70965521 164 230 C163.6268244 234.40664802 161.7121854 238.31431084 159.9375 242.3125 C159.65583984 242.95767578 159.37417969 243.60285156 159.08398438 244.26757812 C158.3937257 245.84698358 157.69746802 247.42376493 157 249 C152.03614337 249.15523189 147.77937144 248.66327531 142.96484375 247.46875 C142.00222374 247.23569153 142.00222374 247.23569153 141.02015686 246.9979248 C138.99067366 246.50614588 136.96391835 246.00424772 134.9375 245.5 C132.9074273 244.99616518 130.87690702 244.49489926 128.84413147 244.0020752 C127.00246235 243.55552575 125.16314079 243.09932677 123.32397461 242.64257812 C120.08272567 242.01599221 117.28842084 241.71542799 114 242 C111.97082387 244.36737216 111.15421303 246.15924244 110.59375 249.21484375 C111.21660679 253.48500617 113.71672804 256.07185989 116.375 259.375 C117.47475019 260.78642295 118.57103012 262.20055578 119.6640625 263.6171875 C120.2199707 264.33745117 120.77587891 265.05771484 121.34863281 265.79980469 C123.95612678 269.27389333 126.36322292 272.87206378 128.75 276.5 C129.17974121 277.15274902 129.60948242 277.80549805 130.05224609 278.47802734 C131.03872539 279.98280555 132.02000942 281.49098796 133 283 C131.42369323 286.87321093 128.92252331 289.24735163 125.9375 292.125 C122.53546517 295.24105765 122.53546517 295.24105765 120 299 C116.21419545 298.34733313 113.55367725 296.61549353 110.3515625 294.54296875 C109.26359375 293.84236328 108.175625 293.14175781 107.0546875 292.41992188 C105.91140047 291.67587015 104.76817176 290.93172881 103.625 290.1875 C102.48990497 289.45457976 101.35449123 288.72215286 100.21875 287.99023438 C91.67164516 282.4689663 91.67164516 282.4689663 87.79052734 279.7590332 C85.18848563 277.77225573 85.18848563 277.77225573 82.4375 278 C79.48069505 279.21304818 77.38285046 280.88947531 75 283 C76.58978827 291.90656971 79.06082066 300.4899453 81.609375 309.16210938 C81.91617188 310.22880859 82.22296875 311.29550781 82.5390625 312.39453125 C82.95986084 313.83082886 82.95986084 313.83082886 83.38916016 315.29614258 C84.00078181 318.00346065 84.27718119 320.23807672 84 323 C81.84765625 324.609375 81.84765625 324.609375 79 326 C78.09121094 326.54140625 77.18242188 327.0828125 76.24609375 327.640625 C75.31925781 328.17171875 74.39242187 328.7028125 73.4375 329.25 C72.50808594 329.79140625 71.57867187 330.3328125 70.62109375 330.890625 C67.66160068 332.14322713 66.9209144 332.11468139 64 331 C62.61889648 329.63989258 62.61889648 329.63989258 61.37109375 327.89453125 C60.66327759 326.92277954 60.66327759 326.92277954 59.94116211 325.93139648 C59.44495361 325.23216064 58.94874512 324.5329248 58.4375 323.8125 C57.36471644 322.36188072 56.29179688 320.91136201 55.21875 319.4609375 C53.13790421 316.60724169 51.12732291 313.71937244 49.15625 310.7890625 C44.79364177 303.96560607 44.79364177 303.96560607 37.97265625 300.3203125 C35.09425717 300.5548207 32.71985855 301.04896838 30 302 C29.01 302.33 28.02 302.66 27 303 C24.24843489 316.65168211 21.52631851 330.30469439 19 344 C13.06 344 7.12 344 1 344 C1 311.33 1 278.66 1 245 C8.92 243.35 16.84 241.7 25 240 C43.87667162 231.96737378 58.05998322 220.06441142 66.75 201.203125 C74.25867608 181.96214255 74.13265974 162.29939542 66.40234375 143.1640625 C58.58484014 125.52568388 43.97593379 111.99525368 26 105 C18.99160203 102.8715605 11.82284112 101.29444765 4.546875 100.45703125 C1 100 1 100 0 99 C-0.09532328 95.92545239 -0.1255138 92.87340842 -0.11352539 89.79858398 C-0.11367142 88.83283447 -0.11381744 87.86708496 -0.1139679 86.87207031 C-0.11326834 83.66338901 -0.10547397 80.45476497 -0.09765625 77.24609375 C-0.09579222 75.02791882 -0.09436825 72.80974348 -0.09336853 70.59156799 C-0.08954216 64.74059929 -0.07971086 58.88965523 -0.06866455 53.03869629 C-0.05845299 47.07332696 -0.05387146 41.10795367 -0.04882812 35.14257812 C-0.03808869 23.42837282 -0.02049093 11.71419231 0 0 Z " fill="#1F73B8" transform="translate(47,58)"/>
<path d="M0 0 C0.83364104 0.00291284 1.66728208 0.00582568 2.52618498 0.00882679 C3.40500316 0.00797237 4.28382134 0.00711794 5.18927038 0.00623763 C8.15738465 0.00458012 11.12544339 0.01010859 14.09355253 0.01555592 C16.21189968 0.01583776 18.33024694 0.01568012 20.44859403 0.01511341 C26.21902043 0.01482531 31.98942623 0.02072406 37.75984782 0.02768737 C43.7830232 0.03391883 49.80619901 0.03452454 55.82937711 0.03571278 C67.24391465 0.03882671 78.65844266 0.04704093 90.07297599 0.05706227 C103.06428642 0.06822149 116.05559728 0.07373337 129.0469113 0.0787577 C155.77918038 0.08922349 182.51143639 0.10756974 209.24369901 0.12908131 C209.24369901 16.29908131 209.24369901 32.46908131 209.24369901 49.12908131 C181.22845053 49.1516253 153.21320936 49.17005871 125.19795412 49.18089348 C112.19098232 49.1860572 99.18401655 49.19310135 86.17704862 49.20452076 C74.84465667 49.21446527 63.51226907 49.22093418 52.17987287 49.2231698 C46.17542726 49.22447731 40.17099411 49.22756566 34.16655248 49.23481137 C28.52206933 49.24156791 22.87760386 49.24369902 17.23311704 49.24218899 C15.15494974 49.24246548 13.07678189 49.24447276 10.99861807 49.24828678 C8.17445152 49.25321833 5.3503529 49.2520816 2.52618498 49.24933583 C1.69254393 49.25224867 0.85890289 49.25516151 0 49.25816262 C-5.64217978 49.24320252 -5.64217978 49.24320252 -6.75630099 48.12908131 C-6.85452843 46.66102839 -6.88428469 45.18830671 -6.88569552 43.71697193 C-6.89042376 42.31046376 -6.89042376 42.31046376 -6.89524752 40.87554127 C-6.89322329 39.85577198 -6.89119906 38.8360027 -6.88911349 37.78533131 C-6.89007021 36.74590382 -6.89102694 35.70647633 -6.89201266 34.63555104 C-6.89269461 32.43303577 -6.89083925 30.23051852 -6.88667208 28.02800709 C-6.88132406 24.64368412 -6.88661657 21.25949387 -6.89301974 17.87517506 C-6.89235896 15.74106018 -6.8910778 13.60694539 -6.88911349 11.47283131 C-6.89113772 10.45306202 -6.89316195 9.43329273 -6.89524752 8.38262135 C-6.89209536 7.44494923 -6.8889432 6.50727711 -6.88569552 5.54119068 C-6.88489992 4.71147755 -6.88410433 3.88176441 -6.88328463 3.02690846 C-6.60438934 -1.1413059 -3.44952028 0.00914632 0 0 Z " fill="#91CC0B" transform="translate(287.75630098581314,60.870918691158295)"/>
<path d="M0 0 C0.83364104 0.00291284 1.66728208 0.00582568 2.52618498 0.00882679 C3.40500316 0.00797237 4.28382134 0.00711794 5.18927038 0.00623763 C8.15738465 0.00458012 11.12544339 0.01010859 14.09355253 0.01555592 C16.21189968 0.01583776 18.33024694 0.01568012 20.44859403 0.01511341 C26.21902043 0.01482531 31.98942623 0.02072406 37.75984782 0.02768737 C43.7830232 0.03391883 49.80619901 0.03452454 55.82937711 0.03571278 C67.24391465 0.03882671 78.65844266 0.04704093 90.07297599 0.05706227 C103.06428642 0.06822149 116.05559728 0.07373337 129.0469113 0.0787577 C155.77917916 0.08922349 182.51143856 0.10682413 209.24369901 0.12908131 C209.26896792 6.94670025 209.28653146 13.7643072 209.29863065 20.58196217 C209.30367235 22.90325582 209.31050553 25.22454628 209.31913847 27.54582936 C209.33121126 30.87436926 209.3369288 34.20286733 209.34135526 37.53142506 C209.34651655 38.57620518 209.35167783 39.6209853 209.35699552 40.69742543 C209.35707105 41.65834599 209.35714658 42.61926655 209.3572244 43.60930592 C209.35944502 44.45980015 209.36166563 45.31029438 209.36395353 46.18656117 C209.24369901 48.12908131 209.24369901 48.12908131 208.24369901 49.12908131 C205.48960511 49.22917984 202.76051672 49.26347661 200.00590605 49.25606495 C198.69486245 49.25840494 198.69486245 49.25840494 197.35733312 49.2607922 C194.40537583 49.26480607 191.45346926 49.26161106 188.50151151 49.25847584 C186.39463865 49.25982971 184.28776602 49.26160956 182.18089384 49.2637859 C176.44139366 49.26836194 170.70191137 49.26656997 164.96241087 49.26340681 C158.97039833 49.26088409 152.97838739 49.2632205 146.9863748 49.26479298 C136.9217561 49.26661493 126.85714473 49.26420769 116.79252714 49.2594524 C105.13810031 49.25400974 93.48369098 49.25577237 81.82926458 49.26127881 C71.84289805 49.26580921 61.8565368 49.26646085 51.87016958 49.26384014 C45.89704057 49.26227696 39.92391979 49.26208471 33.9507913 49.26537663 C28.3366599 49.26825428 22.72255116 49.26628161 17.10842222 49.26048237 C15.04154333 49.2591542 12.97466255 49.25954984 10.9077844 49.26174504 C8.09899405 49.26445432 5.29027756 49.26107815 2.48149198 49.25606495 C1.65242401 49.25829567 0.82335603 49.26052639 -0.03083521 49.26282471 C-5.64215116 49.24323114 -5.64215116 49.24323114 -6.75630099 48.12908131 C-6.85452843 46.66102839 -6.88428469 45.18830671 -6.88569552 43.71697193 C-6.89042376 42.31046376 -6.89042376 42.31046376 -6.89524752 40.87554127 C-6.89322329 39.85577198 -6.89119906 38.8360027 -6.88911349 37.78533131 C-6.89007021 36.74590382 -6.89102694 35.70647633 -6.89201266 34.63555104 C-6.89269461 32.43303577 -6.89083925 30.23051852 -6.88667208 28.02800709 C-6.88132406 24.64368412 -6.88661657 21.25949387 -6.89301974 17.87517506 C-6.89235896 15.74106018 -6.8910778 13.60694539 -6.88911349 11.47283131 C-6.89113772 10.45306202 -6.89316195 9.43329273 -6.89524752 8.38262135 C-6.89209536 7.44494923 -6.8889432 6.50727711 -6.88569552 5.54119068 C-6.88489992 4.71147755 -6.88410433 3.88176441 -6.88328463 3.02690846 C-6.60438934 -1.1413059 -3.44952028 0.00914632 0 0 Z " fill="#91CC0B" transform="translate(287.75630098581314,207.8709186911583)"/>
<path d="M0 0 C70.95 0 141.9 0 215 0 C215 16.17 215 32.34 215 49 C144.05 49 73.1 49 0 49 C0 32.83 0 16.66 0 0 Z " fill="#91CC0C" transform="translate(281,353)"/>
<path d="M0 0 C16.88490857 1.68849086 27.6219773 6.55751273 39 19 C48.21533066 30.94636408 51.582759 45.16028233 50 60 C47.76778447 74.60548972 40.92939294 87.1256955 29 96 C28.25878906 96.66257812 27.51757812 97.32515625 26.75390625 98.0078125 C23.43436953 100.40917949 20.06511638 101.58999811 16.1875 102.75 C15.17719727 103.08064453 15.17719727 103.08064453 14.14648438 103.41796875 C13.47294922 103.62550781 12.79941406 103.83304687 12.10546875 104.046875 C11.50887451 104.23088867 10.91228027 104.41490234 10.29760742 104.60449219 C6.91233061 105.18723031 3.43506663 105 0 105 C0 70.35 0 35.7 0 0 Z " fill="#91CC0B" transform="translate(48,177)"/>
<path d="M0 0 C0.83364104 0.00291284 1.66728208 0.00582568 2.52618498 0.00882679 C3.40500316 0.00797237 4.28382134 0.00711794 5.18927038 0.00623763 C8.15738465 0.00458012 11.12544339 0.01010859 14.09355253 0.01555592 C16.21189968 0.01583776 18.33024694 0.01568012 20.44859403 0.01511341 C26.21902043 0.01482531 31.98942623 0.02072406 37.75984782 0.02768737 C43.7830232 0.03391883 49.80619901 0.03452454 55.82937711 0.03571278 C67.24391465 0.03882671 78.65844266 0.04704093 90.07297599 0.05706227 C103.06428642 0.06822149 116.05559728 0.07373337 129.0469113 0.0787577 C155.77917916 0.08922349 182.51143856 0.10682413 209.24369901 0.12908131 C209.26896792 6.94670025 209.28653146 13.7643072 209.29863065 20.58196217 C209.30367235 22.90325582 209.31050553 25.22454628 209.31913847 27.54582936 C209.33121126 30.87436926 209.3369288 34.20286733 209.34135526 37.53142506 C209.34651655 38.57620518 209.35167783 39.6209853 209.35699552 40.69742543 C209.35707105 41.65834599 209.35714658 42.61926655 209.3572244 43.60930592 C209.35944502 44.45980015 209.36166563 45.31029438 209.36395353 46.18656117 C209.24369901 48.12908131 209.24369901 48.12908131 208.24369901 49.12908131 C205.48960511 49.22917984 202.76051672 49.26347661 200.00590605 49.25606495 C198.69486245 49.25840494 198.69486245 49.25840494 197.35733312 49.2607922 C194.40537583 49.26480607 191.45346926 49.26161106 188.50151151 49.25847584 C186.39463865 49.25982971 184.28776602 49.26160956 182.18089384 49.2637859 C176.44139366 49.26836194 170.70191137 49.26656997 164.96241087 49.26340681 C158.97039833 49.26088409 152.97838739 49.2632205 146.9863748 49.26479298 C136.9217561 49.26661493 126.85714473 49.26420769 116.79252714 49.2594524 C105.13810031 49.25400974 93.48369098 49.25577237 81.82926458 49.26127881 C71.84289805 49.26580921 61.8565368 49.26646085 51.87016958 49.26384014 C45.89704057 49.26227696 39.92391979 49.26208471 33.9507913 49.26537663 C28.3366599 49.26825428 22.72255116 49.26628161 17.10842222 49.26048237 C15.04154333 49.2591542 12.97466255 49.25954984 10.9077844 49.26174504 C8.09899405 49.26445432 5.29027756 49.26107815 2.48149198 49.25606495 C1.65242401 49.25829567 0.82335603 49.26052639 -0.03083521 49.26282471 C-5.64215116 49.24323114 -5.64215116 49.24323114 -6.75630099 48.12908131 C-6.85452843 46.66102839 -6.88428469 45.18830671 -6.88569552 43.71697193 C-6.89042376 42.31046376 -6.89042376 42.31046376 -6.89524752 40.87554127 C-6.89322329 39.85577198 -6.89119906 38.8360027 -6.88911349 37.78533131 C-6.89007021 36.74590382 -6.89102694 35.70647633 -6.89201266 34.63555104 C-6.89269461 32.43303577 -6.89083925 30.23051852 -6.88667208 28.02800709 C-6.88132406 24.64368412 -6.88661657 21.25949387 -6.89301974 17.87517506 C-6.89235896 15.74106018 -6.8910778 13.60694539 -6.88911349 11.47283131 C-6.89113772 10.45306202 -6.89316195 9.43329273 -6.89524752 8.38262135 C-6.89209536 7.44494923 -6.8889432 6.50727711 -6.88569552 5.54119068 C-6.88489992 4.71147755 -6.88410433 3.88176441 -6.88328463 3.02690846 C-6.60438934 -1.1413059 -3.44952028 0.00914632 0 0 Z M188.21392912 3.14469868 C186.76885461 3.15193952 185.3237812 3.15939974 183.87870878 3.16704518 C183.07558067 3.17112873 182.27245256 3.17521228 181.44498724 3.17941958 C178.77502554 3.19304454 176.10506545 3.2069612 173.43510526 3.22087818 C171.5127675 3.23074791 169.59042965 3.24059953 167.66809171 3.25043446 C162.46418501 3.27710941 157.26027965 3.30403695 152.05637449 3.3310104 C146.6124691 3.3591847 141.16856251 3.38712593 135.72465605 3.41509205 C125.42241673 3.46805145 115.1201785 3.52121996 104.81794065 3.5744639 C93.08641924 3.63508446 81.35489664 3.69547142 69.62337393 3.75583893 C45.49681428 3.87999345 21.37025615 4.00444079 -2.75630099 4.12908131 C-9.16809567 16.95267068 -3.75630099 32.79187253 -3.75630099 47.12908131 C65.87369901 47.12908131 135.50369901 47.12908131 207.24369901 47.12908131 C207.24369901 33.59908131 207.24369901 20.06908131 207.24369901 6.12908131 C206.25369901 6.45908131 205.26369901 6.78908131 204.24369901 7.12908131 C204.24369901 6.13908131 204.24369901 5.14908131 204.24369901 4.12908131 C199.14829648 2.4306138 193.5266483 3.12594929 188.21392912 3.14469868 Z " fill="#96C426" transform="translate(287.75630098581314,207.8709186911583)"/>
<path d="M0 0 C0.83364104 0.00291284 1.66728208 0.00582568 2.52618498 0.00882679 C3.40500316 0.00797237 4.28382134 0.00711794 5.18927038 0.00623763 C8.15738465 0.00458012 11.12544339 0.01010859 14.09355253 0.01555592 C16.21189968 0.01583776 18.33024694 0.01568012 20.44859403 0.01511341 C26.21902043 0.01482531 31.98942623 0.02072406 37.75984782 0.02768737 C43.7830232 0.03391883 49.80619901 0.03452454 55.82937711 0.03571278 C67.24391465 0.03882671 78.65844266 0.04704093 90.07297599 0.05706227 C103.06428642 0.06822149 116.05559728 0.07373337 129.0469113 0.0787577 C155.77918038 0.08922349 182.51143639 0.10756974 209.24369901 0.12908131 C209.24369901 16.29908131 209.24369901 32.46908131 209.24369901 49.12908131 C181.22845053 49.1516253 153.21320936 49.17005871 125.19795412 49.18089348 C112.19098232 49.1860572 99.18401655 49.19310135 86.17704862 49.20452076 C74.84465667 49.21446527 63.51226907 49.22093418 52.17987287 49.2231698 C46.17542726 49.22447731 40.17099411 49.22756566 34.16655248 49.23481137 C28.52206933 49.24156791 22.87760386 49.24369902 17.23311704 49.24218899 C15.15494974 49.24246548 13.07678189 49.24447276 10.99861807 49.24828678 C8.17445152 49.25321833 5.3503529 49.2520816 2.52618498 49.24933583 C1.69254393 49.25224867 0.85890289 49.25516151 0 49.25816262 C-5.64217978 49.24320252 -5.64217978 49.24320252 -6.75630099 48.12908131 C-6.85452843 46.66102839 -6.88428469 45.18830671 -6.88569552 43.71697193 C-6.89042376 42.31046376 -6.89042376 42.31046376 -6.89524752 40.87554127 C-6.89322329 39.85577198 -6.89119906 38.8360027 -6.88911349 37.78533131 C-6.89007021 36.74590382 -6.89102694 35.70647633 -6.89201266 34.63555104 C-6.89269461 32.43303577 -6.89083925 30.23051852 -6.88667208 28.02800709 C-6.88132406 24.64368412 -6.88661657 21.25949387 -6.89301974 17.87517506 C-6.89235896 15.74106018 -6.8910778 13.60694539 -6.88911349 11.47283131 C-6.89113772 10.45306202 -6.89316195 9.43329273 -6.89524752 8.38262135 C-6.89209536 7.44494923 -6.8889432 6.50727711 -6.88569552 5.54119068 C-6.88489992 4.71147755 -6.88410433 3.88176441 -6.88328463 3.02690846 C-6.60438934 -1.1413059 -3.44952028 0.00914632 0 0 Z M-4.75630099 3.12908131 C-4.75630099 17.31908131 -4.75630099 31.50908131 -4.75630099 46.12908131 C-0.14403287 47.05153493 4.04268016 47.26650216 8.70349211 47.24933583 C9.9778433 47.25061746 9.9778433 47.25061746 11.27793896 47.25192499 C14.12307383 47.25357137 16.96814966 47.24807218 19.81327909 47.2426067 C21.85339952 47.24232462 23.89352005 47.24248297 25.93364042 47.2430492 C31.47243277 47.24333637 37.01120351 47.23745266 42.54999083 47.23047525 C48.33824788 47.22422829 54.1265054 47.22363684 59.9147653 47.22244984 C70.87584545 47.21934049 81.83691563 47.21113242 92.79799139 47.20110035 C105.27670777 47.18992693 117.75542462 47.18442566 130.23414475 47.17940491 C155.90400297 47.1689495 181.57384753 47.15060892 207.24369901 47.12908131 C207.24369901 32.27908131 207.24369901 17.42908131 207.24369901 2.12908131 C179.8976403 2.10653287 152.55158907 2.0881013 125.20552343 2.07726914 C112.50909811 2.07210654 99.81267897 2.06506453 87.11625761 2.05364186 C76.05377056 2.04369391 64.99128798 2.03722762 53.92879659 2.03499281 C48.06795974 2.0336859 42.20713569 2.03060122 36.34630293 2.02335125 C30.835603 2.01658931 25.32492119 2.01446471 19.81421751 2.01597363 C17.7864595 2.01569738 15.75870092 2.01369329 13.73094648 2.00987583 C10.97281507 2.00493589 8.21475301 2.00608416 5.45662016 2.00882679 C4.23970997 2.00445753 4.23970997 2.00445753 2.99821573 2 C-1.00916749 1.91954456 -1.00916749 1.91954456 -4.75630099 3.12908131 Z " fill="#9FC14F" transform="translate(287.75630098581314,60.870918691158295)"/>
<path d="M0 0 C70.95 0 141.9 0 215 0 C215 16.17 215 32.34 215 49 C144.05 49 73.1 49 0 49 C0 32.83 0 16.66 0 0 Z M2 2 C1.97472876 8.24795675 1.95716656 14.49590041 1.94506836 20.74389648 C1.94002702 22.87118014 1.93319409 24.99846031 1.92456055 27.12573242 C1.91248621 30.17627826 1.90676986 33.22677845 1.90234375 36.27734375 C1.89718246 37.23462875 1.89202118 38.19191376 1.88670349 39.1782074 C1.88662796 40.05904495 1.88655243 40.93988251 1.88647461 41.84741211 C1.884254 42.62684677 1.88203339 43.40628143 1.87974548 44.20933533 C1.80428614 46.02366535 1.80428614 46.02366535 3 47 C5.71853757 47.09785825 8.41166147 47.12993566 11.13063049 47.12025452 C11.99311447 47.12110894 12.85559844 47.12196337 13.74421829 47.12284368 C16.65705481 47.12450114 19.56983473 47.1189728 22.48266602 47.11352539 C24.5616048 47.11324355 26.64054369 47.11340119 28.71948242 47.1139679 C34.38247439 47.11425599 40.04544537 47.10835731 45.70843244 47.10139394 C51.61949893 47.09516241 57.53056586 47.09455676 63.44163513 47.09336853 C74.64367695 47.09025462 85.84570906 47.08204043 97.0477466 47.07201904 C109.79722363 47.06085975 122.54670111 47.05534792 135.2961818 47.05032361 C161.53079326 47.03985786 187.76539609 47.02225727 214 47 C214.02476266 41.53735686 214.04288974 36.07474657 214.05493164 30.61206055 C214.05995303 28.75463288 214.06677141 26.89720915 214.07543945 25.03979492 C214.08760117 22.36636379 214.09325033 19.69298504 214.09765625 17.01953125 C214.10281754 16.19226028 214.10797882 15.36498932 214.11329651 14.51264954 C214.1136812 10.5377466 213.98980119 6.88043167 213 3 C201.41794704 2.03920536 189.9211189 1.86240633 178.30493164 1.88647461 C176.3717092 1.88675733 174.43848666 1.88659709 172.50526428 1.8860321 C167.3038295 1.88574746 162.10241819 1.89159007 156.90098882 1.89860606 C151.44778264 1.9048953 145.99457582 1.90544778 140.54136658 1.90663147 C130.2358145 1.90972846 119.93027314 1.91791966 109.62472576 1.92798096 C97.88336938 1.93919302 86.14201246 1.94466534 74.40065205 1.94967639 C50.26709544 1.96010378 26.13354833 1.97767135 2 2 Z " fill="#A0C14E" transform="translate(281,353)"/>
<path d="M0 0 C0.83364104 0.00291284 1.66728208 0.00582568 2.52618498 0.00882679 C3.40500316 0.00797237 4.28382134 0.00711794 5.18927038 0.00623763 C8.15738465 0.00458012 11.12544339 0.01010859 14.09355253 0.01555592 C16.21189968 0.01583776 18.33024694 0.01568012 20.44859403 0.01511341 C26.21902043 0.01482531 31.98942623 0.02072406 37.75984782 0.02768737 C43.7830232 0.03391883 49.80619901 0.03452454 55.82937711 0.03571278 C67.24391465 0.03882671 78.65844266 0.04704093 90.07297599 0.05706227 C103.06428642 0.06822149 116.05559728 0.07373337 129.0469113 0.0787577 C155.77917916 0.08922349 182.51143856 0.10682413 209.24369901 0.12908131 C209.26896792 6.94670025 209.28653146 13.7643072 209.29863065 20.58196217 C209.30367235 22.90325582 209.31050553 25.22454628 209.31913847 27.54582936 C209.33121126 30.87436926 209.3369288 34.20286733 209.34135526 37.53142506 C209.34651655 38.57620518 209.35167783 39.6209853 209.35699552 40.69742543 C209.35707105 41.65834599 209.35714658 42.61926655 209.3572244 43.60930592 C209.35944502 44.45980015 209.36166563 45.31029438 209.36395353 46.18656117 C209.24369901 48.12908131 209.24369901 48.12908131 208.24369901 49.12908131 C205.48960511 49.22917984 202.76051672 49.26347661 200.00590605 49.25606495 C198.69486245 49.25840494 198.69486245 49.25840494 197.35733312 49.2607922 C194.40537583 49.26480607 191.45346926 49.26161106 188.50151151 49.25847584 C186.39463865 49.25982971 184.28776602 49.26160956 182.18089384 49.2637859 C176.44139366 49.26836194 170.70191137 49.26656997 164.96241087 49.26340681 C158.97039833 49.26088409 152.97838739 49.2632205 146.9863748 49.26479298 C136.9217561 49.26661493 126.85714473 49.26420769 116.79252714 49.2594524 C105.13810031 49.25400974 93.48369098 49.25577237 81.82926458 49.26127881 C71.84289805 49.26580921 61.8565368 49.26646085 51.87016958 49.26384014 C45.89704057 49.26227696 39.92391979 49.26208471 33.9507913 49.26537663 C28.3366599 49.26825428 22.72255116 49.26628161 17.10842222 49.26048237 C15.04154333 49.2591542 12.97466255 49.25954984 10.9077844 49.26174504 C8.09899405 49.26445432 5.29027756 49.26107815 2.48149198 49.25606495 C1.65242401 49.25829567 0.82335603 49.26052639 -0.03083521 49.26282471 C-5.64215116 49.24323114 -5.64215116 49.24323114 -6.75630099 48.12908131 C-6.85452843 46.66102839 -6.88428469 45.18830671 -6.88569552 43.71697193 C-6.89042376 42.31046376 -6.89042376 42.31046376 -6.89524752 40.87554127 C-6.89322329 39.85577198 -6.89119906 38.8360027 -6.88911349 37.78533131 C-6.89007021 36.74590382 -6.89102694 35.70647633 -6.89201266 34.63555104 C-6.89269461 32.43303577 -6.89083925 30.23051852 -6.88667208 28.02800709 C-6.88132406 24.64368412 -6.88661657 21.25949387 -6.89301974 17.87517506 C-6.89235896 15.74106018 -6.8910778 13.60694539 -6.88911349 11.47283131 C-6.89113772 10.45306202 -6.89316195 9.43329273 -6.89524752 8.38262135 C-6.89209536 7.44494923 -6.8889432 6.50727711 -6.88569552 5.54119068 C-6.88489992 4.71147755 -6.88410433 3.88176441 -6.88328463 3.02690846 C-6.60438934 -1.1413059 -3.44952028 0.00914632 0 0 Z M-4.75630099 2.12908131 C-4.78157161 8.51945362 -4.79913416 14.90981314 -4.81123263 21.30022389 C-4.81627406 23.47601003 -4.82310706 25.65179278 -4.83174044 27.82756764 C-4.84381436 30.94761198 -4.84953103 34.06761169 -4.85395724 37.18767506 C-4.85911852 38.16683384 -4.86427981 39.14599262 -4.86959749 40.15482289 C-4.86967303 41.05568119 -4.86974856 41.9565395 -4.86982638 42.88469654 C-4.87204699 43.6818961 -4.8742676 44.47909565 -4.8765555 45.30045277 C-4.95680554 47.14830412 -4.95680554 47.14830412 -3.75630099 48.12908131 C-1.02514792 48.22694656 1.68070982 48.25901585 4.41229337 48.24933583 C5.71214466 48.25061746 5.71214466 48.25061746 7.03825557 48.25192499 C9.96491153 48.25358246 12.89151116 48.24805408 15.8181619 48.2426067 C17.90695278 48.24232486 19.99574376 48.2424825 22.08453459 48.2430492 C27.77438516 48.2433373 33.46421485 48.23743861 39.15406054 48.23047525 C45.09315426 48.22424374 51.0322484 48.22363807 56.97134489 48.22244984 C68.22651064 48.21933592 79.48166672 48.21112173 90.73682821 48.20110035 C103.54676358 48.18994108 116.35669941 48.18442923 129.16663843 48.17940491 C155.52566522 48.16893916 181.88467876 48.15059293 208.24369901 48.12908131 C208.24369901 32.61908131 208.24369901 17.10908131 208.24369901 1.12908131 C180.91491102 1.10652851 153.58613053 1.08809875 126.2573356 1.07726914 C113.56878604 1.07210765 100.88024266 1.06506772 88.19169706 1.05364186 C77.13542636 1.04369056 66.07916014 1.03722681 55.02288508 1.03499281 C49.16592875 1.03368647 43.30898522 1.03060539 37.45203298 1.02335125 C31.94379226 1.01658402 26.43556967 1.0144658 20.92732519 1.01597363 C18.90159978 1.01569762 16.87587378 1.01369665 14.85015196 1.00987583 C12.09237029 1.00492766 9.33465781 1.00608724 6.57687467 1.00882679 C5.76851406 1.00591395 4.96015344 1.00300111 4.12729704 1 C0.90072317 1.00871103 -1.67252295 1.1011553 -4.75630099 2.12908131 Z " fill="#A6C264" transform="translate(287.75630098581314,207.8709186911583)"/>
<path d="M0 0 C16.42138487 1.64213849 28.06056145 6.45386432 39 19 C39.495 20.485 39.495 20.485 40 22 C39.34 22 38.68 22 38 22 C38 21.34 38 20.68 38 20 C37.01 19.67 36.02 19.34 35 19 C33.98438898 18.01585862 32.98677261 17.01305469 32 16 C22.61861703 8.8953382 14.50836207 5.40753568 3 3 C1.6533052 5.6933896 1.87283863 7.77756191 1.87060547 10.79370117 C1.86745331 12.0148613 1.86430115 13.23602142 1.86105347 14.4941864 C1.86284907 15.84378087 1.86490143 17.19337502 1.8671875 18.54296875 C1.86651217 19.94558224 1.86554024 21.34819562 1.86428833 22.75080872 C1.86280813 25.7159637 1.86496687 28.68108873 1.86962891 31.64624023 C1.87517679 35.34578928 1.87205738 39.04526397 1.86617661 42.7448101 C1.83976381 62.51593721 2.22626682 82.24377629 3 102 C3.88840576 101.71995117 4.77681152 101.43990234 5.69213867 101.15136719 C6.8597876 100.78688477 8.02743652 100.42240234 9.23046875 100.046875 C10.38699951 99.68432617 11.54353027 99.32177734 12.73510742 98.94824219 C16.19887726 97.94223889 19.41937936 97.33308099 23 97 C23 96.34 23 95.68 23 95 C28.58461538 92.08076923 28.58461538 92.08076923 31.25 91.5625 C33.18823662 91.1456283 33.18823662 91.1456283 34.1875 89.125 C34.83464059 87.43247845 35.42698864 85.71903407 36 84 C37.32 84.33 38.64 84.66 40 85 C31.29525367 95.1361935 21.69765243 103.1639831 8 105 C5.36 105 2.72 105 0 105 C0 70.35 0 35.7 0 0 Z " fill="#9EC04B" transform="translate(48,177)"/>
<path d="M0 0 C-1.47643741 0.34522127 -2.95639782 0.67537487 -4.4375 1 C-5.67306641 1.2784375 -5.67306641 1.2784375 -6.93359375 1.5625 C-9.60018921 1.94295693 -12.0083822 2.04437362 -14.69165039 2.02734375 C-15.49929337 2.023396 -16.30693634 2.01944824 -17.13905334 2.01538086 C-18.06022194 2.00776733 -18.06022194 2.00776733 -19 2 C-18.89232469 12.96178886 -18.77965646 23.92351404 -18.66066074 34.8851862 C-18.60555882 39.97543811 -18.55215962 45.06569589 -18.50268555 50.15600586 C-18.45485367 55.07084913 -18.40250491 59.98562565 -18.34705925 64.90038872 C-18.32672072 66.77298756 -18.30799405 68.64560465 -18.29092598 70.51823616 C-18.26669277 73.14642023 -18.23666544 75.7744803 -18.20532227 78.40258789 C-18.1995668 79.17223373 -18.19381134 79.94187958 -18.18788147 80.73484802 C-18.14110908 84.19817041 -17.93876987 87.40972141 -17.42466736 90.84983826 C-17 94 -17 94 -18 97 C-13.38 96.67 -8.76 96.34 -4 96 C-3.79503906 94.68644531 -3.59007813 93.37289062 -3.37890625 92.01953125 C-3.10682579 90.28384555 -2.83468733 88.54816894 -2.5625 86.8125 C-2.42779297 85.94818359 -2.29308594 85.08386719 -2.15429688 84.19335938 C-1.51295695 80.11068325 -0.86223779 76.04330923 0 72 C0.66 72 1.32 72 2 72 C1.97679688 71.33613281 1.95359375 70.67226563 1.9296875 69.98828125 C1.74612615 61.00688684 1.74612615 61.00688684 4 57 C7.57030444 53.42969556 12.8969662 53.91708887 17.75 53.6875 C21.6902266 53.72777489 21.6902266 53.72777489 24.0625 55.8125 C25 58 25 58 25 61 C26.32 61.33 27.64 61.66 29 62 C29.12375 62.969375 29.2475 63.93875 29.375 64.9375 C29.58125 65.948125 29.7875 66.95875 30 68 C30.99 68.495 30.99 68.495 32 69 C31.01 69 30.02 69 29 69 C28.00024787 67.58160167 27.00988166 66.15451467 26.09423828 64.68041992 C24.2637289 61.76475582 22.45561607 59.44828587 20 57 C14.95399782 55.95043155 10.77874373 57.40708542 6 59 C3.24843489 72.65168211 0.52631851 86.30469439 -2 100 C-7.94 100 -13.88 100 -20 100 C-20 67.33 -20 34.66 -20 1 C-4 -2 -4 -2 0 0 Z " fill="#4177A2" transform="translate(68,302)"/>
<path d="M0 0 C0.85925485 -0.00085442 1.71850969 -0.00170885 2.60380256 -0.00258917 C5.49971366 -0.00424389 8.39556757 0.00127729 11.29147339 0.00672913 C13.36070759 0.00701103 15.42994189 0.00685321 17.49917603 0.00628662 C23.13111808 0.00599875 28.76303901 0.01189376 34.39497614 0.01886058 C40.27534027 0.0250959 46.15570485 0.02569806 52.03607178 0.02688599 C63.17787318 0.02999877 74.31966481 0.03821146 85.4614619 0.04823548 C98.14324877 0.05939824 110.82503609 0.06490748 123.50682664 0.06993091 C149.60024947 0.08039411 175.69366362 0.09799255 201.78707886 0.12025452 C201.12707886 3.42025452 200.46707886 6.72025452 199.78707886 10.12025452 C199.45707886 10.12025452 199.12707886 10.12025452 198.78707886 10.12025452 C198.66207886 4.37025452 198.66207886 4.37025452 199.78707886 2.12025452 C131.14707886 2.12025452 62.50707886 2.12025452 -8.21292114 2.12025452 C-8.21292114 13.67025452 -8.21292114 25.22025452 -8.21292114 37.12025452 C-9.20292114 37.61525452 -9.20292114 37.61525452 -10.21292114 38.12025452 C-10.21292114 25.91025452 -10.21292114 13.70025452 -10.21292114 1.12025452 C-7.00644145 -0.48298533 -3.52155749 -0.012644 0 0 Z " fill="#93C81C" transform="translate(293.2129211425781,62.87974548339844)"/>
<path d="M0 0 C3.96 0 7.92 0 12 0 C12 0.33 12 0.66 12 1 C8.7 1 5.4 1 2 1 C2 33.01 2 65.02 2 98 C6.95 98.33 11.9 98.66 17 99 C17 99.66 17 100.32 17 101 C19.64 101 22.28 101 25 101 C25.33 101.99 25.66 102.98 26 104 C20.3192982 103.32940637 14.69552654 102.49204129 9.0625 101.5 C8.29615234 101.36980469 7.52980469 101.23960937 6.74023438 101.10546875 C1.11977209 100.11977209 1.11977209 100.11977209 0 99 C-0.09532328 95.92545239 -0.1255138 92.87340842 -0.11352539 89.79858398 C-0.11367142 88.83283447 -0.11381744 87.86708496 -0.1139679 86.87207031 C-0.11326834 83.66338901 -0.10547397 80.45476497 -0.09765625 77.24609375 C-0.09579222 75.02791882 -0.09436825 72.80974348 -0.09336853 70.59156799 C-0.08954216 64.74059929 -0.07971086 58.88965523 -0.06866455 53.03869629 C-0.05845299 47.07332696 -0.05387146 41.10795367 -0.04882812 35.14257812 C-0.03808869 23.42837456 -0.02101085 11.71418933 0 0 Z " fill="#628CAC" transform="translate(47,58)"/>
<path d="M0 0 C0.33 0 0.66 0 1 0 C1.99 4.29 2.98 8.58 4 13 C17.99415988 15.69856894 31.98900601 18.39010896 46 21 C46 28.26 46 35.52 46 43 C43.41027344 43.48210937 40.82054687 43.96421875 38.15234375 44.4609375 C35.62688432 44.93344808 33.10164133 45.40709945 30.57641602 45.88085938 C28.82989406 46.207898 27.08315171 46.53376205 25.33618164 46.85839844 C22.81597082 47.32694063 20.29659946 47.7997901 17.77734375 48.2734375 C17.00414291 48.41623138 16.23094208 48.55902527 15.43431091 48.70614624 C10.86554661 49.57019207 6.45151305 50.65449345 2 52 C2 50.68 2 49.36 2 48 C3.45736087 47.80508548 4.91594593 47.61930642 6.375 47.4375 C7.59316406 47.28087891 7.59316406 47.28087891 8.8359375 47.12109375 C11 47 11 47 13 48 C13 47.34 13 46.68 13 46 C14.875 45.6875 16.75 45.375 18.625 45.0625 C19.66914063 44.88847656 20.71328125 44.71445313 21.7890625 44.53515625 C22.84867188 44.35855469 23.90828125 44.18195313 25 44 C26.051875 43.814375 27.10375 43.62875 28.1875 43.4375 C31.16600766 42.97417659 33.99053628 42.9283461 37 43 C37 42.34 37 41.68 37 41 C38.98 41 40.96 41 43 41 C43 35.06 43 29.12 43 23 C40.69 23 38.38 23 36 23 C34.65805283 22.35084669 33.32526648 21.68256206 32 21 C29.23782202 20.55073009 26.52717009 20.17430632 23.75 19.875 C23.00492188 19.78863281 22.25984375 19.70226562 21.4921875 19.61328125 C19.66222154 19.40213133 17.83120121 19.20015455 16 19 C16 18.34 16 17.68 16 17 C14.73542969 16.90912109 14.73542969 16.90912109 13.4453125 16.81640625 C11.80175781 16.69072266 11.80175781 16.69072266 10.125 16.5625 C9.03445312 16.48128906 7.94390625 16.40007812 6.8203125 16.31640625 C4 16 4 16 2 15 C2 14.01 2 13.02 2 12 C1.34 12 0.68 12 0 12 C0 8.04 0 4.08 0 0 Z " fill="#3B73A0" transform="translate(176,198)"/>
<path d="M0 0 C0.33 0 0.66 0 1 0 C1 1.65 1 3.3 1 5 C-68.63 5 -138.26 5 -210 5 C-210 4.67 -210 4.34 -210 4 C-141.36 4 -72.72 4 -2 4 C-1.34 2.68 -0.68 1.36 0 0 Z " fill="#92C61E" transform="translate(494,395)"/>
<path d="M0 0 C1.32 0 2.64 0 4 0 C3.92894547 0.71814377 3.85789093 1.43628754 3.78468323 2.17619324 C2.90112034 12.12584595 2.87150233 22.0070928 2.90234375 31.98828125 C2.90421329 33.78574077 2.90563465 35.5832008 2.90663147 37.38066101 C2.9104145 42.06750951 2.92020782 46.75432606 2.93133545 51.44116211 C2.94164114 56.24136931 2.94614854 61.04158176 2.95117188 65.84179688 C2.96183469 75.22787847 2.97885925 84.61393656 3 94 C0.62322214 91.62322214 0.71904032 91.04781524 0.58813477 87.80273438 C0.54969955 86.91009888 0.51126434 86.01746338 0.47166443 85.09777832 C0.44105423 84.10644897 0.41044403 83.11511963 0.37890625 82.09375 C0.34116592 81.04344604 0.3034256 79.99314209 0.26454163 78.91101074 C-0.20021598 64.22243365 -0.11181805 49.52379434 -0.06866455 34.82983398 C-0.05823097 30.88656164 -0.05382512 26.94328232 -0.04882812 23 C-0.03826649 15.33331507 -0.02131777 7.6666634 0 0 Z " fill="#95C61E" transform="translate(49,180)"/>
<path d="M0 0 C2.31 0 4.62 0 7 0 C9.64 13.53 12.28 27.06 15 41 C23.89849977 44.19156526 23.89849977 44.19156526 29 44 C30.51862984 42.699352 30.51862984 42.699352 31.734375 40.8515625 C32.22260742 40.17996094 32.71083984 39.50835937 33.21386719 38.81640625 C33.72079102 38.09324219 34.22771484 37.37007812 34.75 36.625 C35.81121819 35.15792611 36.87372062 33.69178033 37.9375 32.2265625 C38.45570312 31.50629883 38.97390625 30.78603516 39.5078125 30.04394531 C42.52398197 25.91250375 45.7634697 21.95999001 49 18 C49.495 19.485 49.495 19.485 50 21 C48.63671875 23.41015625 48.63671875 23.41015625 46.6875 26.0625 C46.05199219 26.94035156 45.41648438 27.81820312 44.76171875 28.72265625 C43 31 43 31 41 33 C40.67 33.99 40.34 34.98 40 36 C39.34 36 38.68 36 38 36 C37.67 36.99 37.34 37.98 37 39 C36.34 39 35.68 39 35 39 C34.896875 39.639375 34.79375 40.27875 34.6875 40.9375 C34.460625 41.618125 34.23375 42.29875 34 43 C33.01 43.33 32.02 43.66 31 44 C31 44.66 31 45.32 31 46 C29.2709226 46.02725341 27.54171824 46.04650987 25.8125 46.0625 C24.84957031 46.07410156 23.88664062 46.08570313 22.89453125 46.09765625 C20.14423487 46.00486622 17.67520409 45.62111685 15 45 C15 44.34 15 43.68 15 43 C14.34 43 13.68 43 13 43 C12.88406494 42.39937744 12.76812988 41.79875488 12.64868164 41.17993164 C12.12393529 38.47333141 11.59329853 35.76791952 11.0625 33.0625 C10.88009766 32.11697266 10.69769531 31.17144531 10.50976562 30.19726562 C10.33251953 29.29814453 10.15527344 28.39902344 9.97265625 27.47265625 C9.81031494 26.64000244 9.64797363 25.80734863 9.48071289 24.94946289 C9.18019737 23.00778088 9.18019737 23.00778088 8 22 C7.55184266 18.66706516 7.17983366 15.33532925 6.83789062 11.99023438 C6.26787225 6.70872513 6.26787225 6.70872513 4 2 C1.9664052 0.73195434 1.9664052 0.73195434 0 0 Z " fill="#42739A" transform="translate(59,58)"/>
<path d="M0 0 C1.0625 1.8203125 1.0625 1.8203125 2 4.125 C2.33386719 4.93710938 2.66773438 5.74921875 3.01171875 6.5859375 C3.50091797 7.78089844 3.50091797 7.78089844 4 9 C4.31582031 9.65226563 4.63164062 10.30453125 4.95703125 10.9765625 C6.79559133 14.78800668 7.38531151 16.98259661 6 21 C4.05859375 22.6328125 4.05859375 22.6328125 1.4375 24.125 C-3.74803848 27.21032699 -8.72952187 30.49754055 -13.6875 33.9375 C-14.40687744 34.43459473 -15.12625488 34.93168945 -15.86743164 35.44384766 C-17.57951234 36.62746239 -19.28993819 37.81347029 -21 39 C-21.495 37.515 -21.495 37.515 -22 36 C-21.4225 35.7525 -20.845 35.505 -20.25 35.25 C-17.90413377 34.08155783 -17.90413377 34.08155783 -16.0625 32.0625 C-14 30 -14 30 -11.3125 28.4375 C-8.69589558 27.15227904 -8.69589558 27.15227904 -8 24 C-6.35448038 23.28272222 -4.68577711 22.61674772 -3 22 C-2.34 21.34 -1.68 20.68 -1 20 C-0.01 20 0.98 20 2 20 C2 16.37 2 12.74 2 9 C1.34 9 0.68 9 0 9 C-0.33 6.69 -0.66 4.38 -1 2 C-1.64066406 2.144375 -2.28132813 2.28875 -2.94140625 2.4375 C-8.08040377 3.54035491 -12.74695843 4.22839311 -18 4 C-14.89576443 2.31945639 -11.83501066 1.26010501 -8.4375 0.3125 C-7.48746094 0.04050781 -6.53742188 -0.23148438 -5.55859375 -0.51171875 C-3 -1 -3 -1 0 0 Z " fill="#3471A1" transform="translate(205,155)"/>
<path d="M0 0 C-1.47643741 0.34522127 -2.95639782 0.67537487 -4.4375 1 C-5.67306641 1.2784375 -5.67306641 1.2784375 -6.93359375 1.5625 C-9.60018921 1.94295693 -12.0083822 2.04437362 -14.69165039 2.02734375 C-15.49929337 2.023396 -16.30693634 2.01944824 -17.13905334 2.01538086 C-18.06022194 2.00776733 -18.06022194 2.00776733 -19 2 C-18.89232469 12.96178886 -18.77965646 23.92351404 -18.66066074 34.8851862 C-18.60555882 39.97543811 -18.55215962 45.06569589 -18.50268555 50.15600586 C-18.45485367 55.07084913 -18.40250491 59.98562565 -18.34705925 64.90038872 C-18.32672072 66.77298756 -18.30799405 68.64560465 -18.29092598 70.51823616 C-18.26669277 73.14642023 -18.23666544 75.7744803 -18.20532227 78.40258789 C-18.1995668 79.17223373 -18.19381134 79.94187958 -18.18788147 80.73484802 C-18.14110908 84.19817041 -17.93876987 87.40972141 -17.42466736 90.84983826 C-17 94 -17 94 -18 97 C-13.05 96.67 -8.1 96.34 -3 96 C-3 96.66 -3 97.32 -3 98 C-8.61 98 -14.22 98 -20 98 C-20 65.99 -20 33.98 -20 1 C-4 -2 -4 -2 0 0 Z " fill="#316B9B" transform="translate(68,302)"/>
<path d="M0 0 C3.60047044 3.13217898 5.06626226 6.04031763 6.6875 10.5 C7.10386719 11.6240625 7.52023438 12.748125 7.94921875 13.90625 C12.21206836 26.45709346 10.52436705 39.75674477 6 52 C4.5157907 54.92216844 2.94697892 57.34994535 1 60 C0.505 58.515 0.505 58.515 0 57 C0.97686966 55.34942712 1.95511321 53.69964683 2.94140625 52.0546875 C11.12923744 36.1624395 4.59364087 15.91220645 0 0 Z " fill="#A1C447" transform="translate(88,200)"/>
<path d="M0 0 C0.62261719 0.52980469 1.24523437 1.05960937 1.88671875 1.60546875 C2.82128906 2.394375 3.75585938 3.18328125 4.71875 3.99609375 C5.71765784 4.9435387 6.71103665 5.89684216 7.69921875 6.85546875 C8.21419922 7.32082031 8.72917969 7.78617188 9.25976562 8.265625 C11.75639612 10.69206909 12.86572457 12.03712639 12.99609375 15.56640625 C11.66755408 19.20585648 9.72964084 21.99671393 7.32421875 24.98046875 C6.89947266 25.52574219 6.47472656 26.07101563 6.03710938 26.6328125 C4.99708288 27.96498127 3.94327637 29.28637257 2.88671875 30.60546875 C1.77898533 27.28226849 1.95359367 25.91382131 2.88671875 22.60546875 C3.54671875 21.94546875 4.20671875 21.28546875 4.88671875 20.60546875 C5.87671875 20.60546875 6.86671875 20.60546875 7.88671875 20.60546875 C7.88671875 18.95546875 7.88671875 17.30546875 7.88671875 15.60546875 C8.54671875 15.60546875 9.20671875 15.60546875 9.88671875 15.60546875 C10.21671875 14.94546875 10.54671875 14.28546875 10.88671875 13.60546875 C10.22671875 13.60546875 9.56671875 13.60546875 8.88671875 13.60546875 C8.22671875 11.95546875 7.56671875 10.30546875 6.88671875 8.60546875 C5.56671875 8.60546875 4.24671875 8.60546875 2.88671875 8.60546875 C2.55671875 6.95546875 2.22671875 5.30546875 1.88671875 3.60546875 C0.89671875 3.93546875 -0.09328125 4.26546875 -1.11328125 4.60546875 C-1.11328125 3.94546875 -1.11328125 3.28546875 -1.11328125 2.60546875 C-7.13840178 5.91430963 -7.13840178 5.91430963 -13.05078125 9.41796875 C-15.11328125 10.60546875 -15.11328125 10.60546875 -17.11328125 10.60546875 C-17.11328125 11.26546875 -17.11328125 11.92546875 -17.11328125 12.60546875 C-17.77328125 12.60546875 -18.43328125 12.60546875 -19.11328125 12.60546875 C-19.44328125 13.59546875 -19.77328125 14.58546875 -20.11328125 15.60546875 C-22.48828125 16.85546875 -22.48828125 16.85546875 -25.11328125 17.60546875 C-26.10328125 17.27546875 -27.09328125 16.94546875 -28.11328125 16.60546875 C-22.10723046 12.24530688 -15.95770011 8.09153854 -9.73828125 4.04296875 C-9.04863281 3.57713379 -8.35898438 3.11129883 -7.6484375 2.63134766 C-2.74499784 -0.51246725 -2.74499784 -0.51246725 0 0 Z " fill="#3C74A2" transform="translate(168.11328125,104.39453125)"/>
<path d="M0 0 C3.5875213 1.33250791 6.8364623 2.830717 10 5 C10 5.66 10 6.32 10 7 C10.98419922 7.32484375 10.98419922 7.32484375 11.98828125 7.65625 C16.06516124 9.47524704 19.53978061 11.94494587 23.1875 14.5 C23.91130859 14.99886719 24.63511719 15.49773437 25.38085938 16.01171875 C30.70965521 19.70965521 30.70965521 19.70965521 33 22 C32.6268244 26.40664802 30.7121854 30.31431084 28.9375 34.3125 C28.65583984 34.95767578 28.37417969 35.60285156 28.08398438 36.26757812 C27.3937257 37.84698358 26.69746802 39.42376493 26 41 C21.08154219 41.15037323 16.83490821 40.68080203 12.0625 39.5 C10.91910156 39.2215625 9.77570313 38.943125 8.59765625 38.65625 C7.74042969 38.4396875 6.88320312 38.223125 6 38 C6 37.67 6 37.34 6 37 C11.75813575 36.89530662 17.29014022 37.25983299 23 38 C23.33773437 37.30132812 23.67546875 36.60265625 24.0234375 35.8828125 C24.46945313 34.97273438 24.91546875 34.06265625 25.375 33.125 C25.81585938 32.22007812 26.25671875 31.31515625 26.7109375 30.3828125 C28 28 28 28 30 26 C30.6425235 23.93125966 30.6425235 23.93125966 31 22 C30.34 22 29.68 22 29 22 C29 21.34 29 20.68 29 20 C28.01 20 27.02 20 26 20 C26 19.34 26 18.68 26 18 C24.865625 17.731875 23.73125 17.46375 22.5625 17.1875 C21.386875 16.795625 20.21125 16.40375 19 16 C18.67 15.01 18.34 14.02 18 13 C17.071875 12.896875 16.14375 12.79375 15.1875 12.6875 C11.77087982 11.95058192 11.13017392 11.59325521 9 9 C5.002902 4.79496628 5.002902 4.79496628 0 2 C0 1.34 0 0.68 0 0 Z " fill="#43749B" transform="translate(178,266)"/>
<path d="M0 0 C4.1424367 1.38081223 5.32203099 3.59825558 8 7 C12.16566899 5.23760158 14.21525743 3.15395214 18 0 C18 5.94 18 11.88 18 18 C17.01 18 16.02 18 15 18 C14.67 14.7 14.34 11.4 14 8 C12.68 9.32 11.36 10.64 10 12 C7.53199953 10.84826645 5.95216435 9.95216435 4 8 C3.67 11.3 3.34 14.6 3 18 C2.01 18 1.02 18 0 18 C0 12.06 0 6.12 0 0 Z " fill="#242425" transform="translate(478,29)"/>
<path d="M0 0 C28.38 0 56.76 0 86 0 C86 0.33 86 0.66 86 1 C58.94 1 31.88 1 4 1 C2.11399249 5.57161079 2.11399249 5.57161079 1.68115234 10.0559082 C1.66128265 10.81631912 1.64141296 11.57673004 1.62094116 12.36018372 C1.60361435 13.5682795 1.60361435 13.5682795 1.5859375 14.80078125 C1.56657135 15.63715622 1.5472052 16.47353119 1.5272522 17.33525085 C1.46769808 19.9942317 1.42116826 22.6532564 1.375 25.3125 C1.33679794 27.12046109 1.29774491 28.92840442 1.2578125 30.73632812 C1.16201655 35.15740698 1.07789669 39.57857101 1 44 C0.67 44 0.34 44 0 44 C0 29.48 0 14.96 0 0 Z " fill="#97C81C" transform="translate(283,355)"/>
<path d="M0 0 C0.33 0 0.66 0 1 0 C1.33 10.23 1.66 20.46 2 31 C6.29 29.68 10.58 28.36 15 27 C17.32216638 26.59614498 19.65310973 26.21831537 22 26 C22 25.34 22 24.68 22 24 C27.58461538 21.08076923 27.58461538 21.08076923 30.25 20.5625 C32.18823662 20.1456283 32.18823662 20.1456283 33.1875 18.125 C33.83464059 16.43247845 34.42698864 14.71903407 35 13 C36.32 13.33 37.64 13.66 39 14 C30.75634916 23.59927342 23.00482 30.699518 10 32 C6.7 32 3.4 32 0 32 C0 21.44 0 10.88 0 0 Z " fill="#96C425" transform="translate(49,248)"/>
<path d="M0 0 C3.70605319 3.49835844 6.52199492 7.00850064 9.3125 11.3125 C10.00988281 12.38113281 10.70726562 13.44976562 11.42578125 14.55078125 C12.20501953 15.76314453 12.20501953 15.76314453 13 17 C11.42369323 20.87321093 8.92252331 23.24735163 5.9375 26.125 C2.53546517 29.24105765 2.53546517 29.24105765 0 33 C-4.07453229 32.37695259 -6.89539701 30.23467379 -10.25 27.9375 C-11.32765625 27.20402344 -12.4053125 26.47054688 -13.515625 25.71484375 C-14.33546875 25.14894531 -15.1553125 24.58304687 -16 24 C-14.1875 22.9375 -14.1875 22.9375 -12 22 C-9 23 -9 23 -7.6875 25.4375 C-5.53754024 28.70225371 -3.71466789 29.09197007 0 30 C0 29.01 0 28.02 0 27 C0.66 27 1.32 27 2 27 C2 26.01 2 25.02 2 24 C2.99 24 3.98 24 5 24 C5.33 23.01 5.66 22.02 6 21 C6.66 21 7.32 21 8 21 C8 20.34 8 19.68 8 19 C8.66 19 9.32 19 10 19 C9.81584568 16.05908413 9.81584568 16.05908413 9 13 C7.13355094 11.81669817 7.13355094 11.81669817 5 11 C1.90562655 7.78661219 1.06644025 4.26576099 0 0 Z " fill="#4779A0" transform="translate(167,324)"/>
<path d="M0 0 C1.65 0 3.3 0 5 0 C4.01 1.485 4.01 1.485 3 3 C3.06262717 5.10160526 3.06262717 5.10160526 3.6484375 7.38671875 C3.94959473 8.71775635 3.94959473 8.71775635 4.25683594 10.07568359 C5.88502624 16.48253755 7.74573744 22.82056491 9.609375 29.16210938 C9.91617188 30.22880859 10.22296875 31.29550781 10.5390625 32.39453125 C10.81959473 33.35206299 11.10012695 34.30959473 11.38916016 35.29614258 C12.00097043 38.00429559 12.27983093 40.23734365 12 43 C9.8125 44.625 9.8125 44.625 7 46 C6.113125 46.556875 5.22625 47.11375 4.3125 47.6875 C2 49 2 49 0 49 C0 48.34 0 47.68 0 47 C0.804375 46.731875 1.60875 46.46375 2.4375 46.1875 C3.7059375 45.5996875 3.7059375 45.5996875 5 45 C5.33 44.01 5.66 43.02 6 42 C6.99 41.34 7.98 40.68 9 40 C8.87625 38.700625 8.7525 37.40125 8.625 36.0625 C8.55539063 35.33160156 8.48578125 34.60070312 8.4140625 33.84765625 C8.20910156 32.93306641 8.20910156 32.93306641 8 32 C7.34 31.67 6.68 31.34 6 31 C5.5859375 28.27734375 5.5859375 28.27734375 5.375 24.9375 C5.30023438 23.83277344 5.22546875 22.72804688 5.1484375 21.58984375 C5.09945312 20.73519531 5.05046875 19.88054687 5 19 C4.01 19 3.02 19 2 19 C1.66600746 16.02090586 1.3327744 13.04173024 1 10.0625 C0.90460938 9.21236328 0.80921875 8.36222656 0.7109375 7.48632812 C0.62070313 6.67744141 0.53046875 5.86855469 0.4375 5.03515625 C0.35371094 4.2862915 0.26992187 3.53742676 0.18359375 2.76586914 C0 1 0 1 0 0 Z " fill="#4E7B9B" transform="translate(119,338)"/>
<path d="M0 0 C0.99 0.33 1.98 0.66 3 1 C2.62601074 1.51908936 2.25202148 2.03817871 1.86669922 2.57299805 C0.18356437 4.9314388 -1.47069986 7.30875578 -3.125 9.6875 C-4.00865234 10.91243164 -4.00865234 10.91243164 -4.91015625 12.16210938 C-5.45800781 12.95810547 -6.00585938 13.75410156 -6.5703125 14.57421875 C-7.08352051 15.30213623 -7.59672852 16.03005371 -8.12548828 16.7800293 C-9.27118718 19.03384636 -9.27118718 19.03384636 -8.27685547 21.58911133 C-6.97096457 24.1527198 -6.97096457 24.1527198 -5 27 C0.47821412 26.47826532 5.63724063 25.71942235 10.95703125 24.3046875 C13.25570143 23.9618648 14.80275324 24.29885609 17 25 C16.030625 25.28875 15.06125 25.5775 14.0625 25.875 C10.89335797 26.64214682 10.89335797 26.64214682 10 29 C7.234375 29.484375 7.234375 29.484375 3.75 29.75 C2.61046875 29.84796875 1.4709375 29.9459375 0.296875 30.046875 C-3.06593801 29.99906249 -5.06506571 29.60660088 -8 28 C-9.6875 25.125 -9.6875 25.125 -11 22 C-11.391875 21.21625 -11.78375 20.4325 -12.1875 19.625 C-12.455625 19.08875 -12.72375 18.5525 -13 18 C-12.443125 17.525625 -11.88625 17.05125 -11.3125 16.5625 C-8.16612276 13.07597387 -6.16197674 9.14674227 -4 5 C-3.01 5 -2.02 5 -1 5 C-0.67 3.35 -0.34 1.7 0 0 Z " fill="#3C74A0" transform="translate(167,135)"/>
<path d="M0 0 C0.33 0 0.66 0 1 0 C1.1875 2.375 1.1875 2.375 1 5 C0.01 5.66 -0.98 6.32 -2 7 C-3.19232613 9.05003955 -3.19232613 9.05003955 -4 11 C-4.66 10.67 -5.32 10.34 -6 10 C-6.0928125 10.86625 -6.0928125 10.86625 -6.1875 11.75 C-7.33384174 14.92448483 -9.25956842 16.12848575 -12 18 C-12.66 18 -13.32 18 -14 18 C-14.99 20.475 -14.99 20.475 -16 23 C-16.99 23 -17.98 23 -19 23 C-19 23.66 -19 24.32 -19 25 C-21.90121168 27.68630711 -24.18375724 28.30613768 -28 29 C-29.33985891 29.50380874 -30.67283426 30.02614542 -32 30.5625 C-35.12808169 31.78292581 -37.60239272 32.31852568 -41 32 C-38.51984901 30.73772367 -36.02037908 29.54459094 -33.49609375 28.37109375 C-20.12366675 22.06779843 -10.57260919 14.52631651 -1.8984375 2.52734375 C-1.27195313 1.69332031 -0.64546875 0.85929687 0 0 Z " fill="#3B729E" transform="translate(109,268)"/>
<path d="M0 0 C0.33 0 0.66 0 1 0 C1 11.55 1 23.1 1 35 C0.01 35 -0.98 35 -2 35 C-2.04937279 30.33692986 -2.08570627 25.67401127 -2.10986328 21.01074219 C-2.11993188 19.42380117 -2.13358767 17.83687875 -2.15087891 16.25 C-2.17509001 13.97130753 -2.18647422 11.69285994 -2.1953125 9.4140625 C-2.20563507 8.70255035 -2.21595764 7.99103821 -2.22659302 7.25796509 C-2.22699422 5.50368335 -2.12202209 3.75003291 -2 2 C-1.34 1.34 -0.68 0.68 0 0 Z " fill="#94C719" transform="translate(494,220)"/>
<path d="M0 0 C5.61 0 11.22 0 17 0 C17 0.99 17 1.98 17 3 C14.69 3 12.38 3 10 3 C10 8.28 10 13.56 10 19 C9.01 19 8.02 19 7 19 C7 13.72 7 8.44 7 3 C4.69 3 2.38 3 0 3 C0 2.01 0 1.02 0 0 Z " fill="#262628" transform="translate(457,28)"/>
<path d="M0 0 C0.33 0 0.66 0 1 0 C1 5.61 1 11.22 1 17 C-2.99215303 18.99607651 -6.61613943 19.87015306 -10.94140625 20.69140625 C-11.70549301 20.841577 -12.46957977 20.99174774 -13.25682068 21.14646912 C-15.69101306 21.62396929 -18.12663555 22.09361113 -20.5625 22.5625 C-23.0016513 23.03629198 -25.44046377 23.51173806 -27.87889099 23.98924255 C-29.39425007 24.28553913 -30.91007596 24.57946043 -32.42640686 24.8707428 C-35.3613559 25.4410709 -38.15960566 26.05320189 -41 27 C-41 25.68 -41 24.36 -41 23 C-39.54263913 22.80508548 -38.08405407 22.61930642 -36.625 22.4375 C-35.81289062 22.33308594 -35.00078125 22.22867188 -34.1640625 22.12109375 C-32 22 -32 22 -30 23 C-30 22.34 -30 21.68 -30 21 C-28.125 20.6875 -26.25 20.375 -24.375 20.0625 C-23.33085937 19.88847656 -22.28671875 19.71445313 -21.2109375 19.53515625 C-20.15132812 19.35855469 -19.09171875 19.18195313 -18 19 C-16.948125 18.814375 -15.89625 18.62875 -14.8125 18.4375 C-11.83399234 17.97417659 -9.00946372 17.9283461 -6 18 C-6 17.34 -6 16.68 -6 16 C-4.02 16 -2.04 16 0 16 C0 10.72 0 5.44 0 0 Z " fill="#3972A3" transform="translate(219,223)"/>
<path d="M0 0 C0.33 0 0.66 0 1 0 C1.50100559 9.79744269 -0.02307359 18.44485571 -2 28 C-7.94 28 -13.88 28 -20 28 C-20 27.34 -20 26.68 -20 26 C-14.39 26 -8.78 26 -3 26 C-3.061875 24.494375 -3.12375 22.98875 -3.1875 21.4375 C-3.21632379 14.07782508 -1.6187346 7.13977581 0 0 Z " fill="#4A7CA6" transform="translate(68,374)"/>
<path d="M0 0 C4.62675657 1.3922459 8.64686231 3.29520984 12.875 5.625 C14.02742188 6.25664063 15.17984375 6.88828125 16.3671875 7.5390625 C17.67042969 8.26222656 17.67042969 8.26222656 19 9 C18.51855059 13.81449408 18.1991413 16.60171741 16 21 C15.67 17.37 15.34 13.74 15 10 C13.68 9.67 12.36 9.34 11 9 C11 8.34 11 7.68 11 7 C7.34920174 5.38935371 3.9492568 4.55105909 0 4 C0 4.66 0 5.32 0 6 C-1.32 5.67 -2.64 5.34 -4 5 C-2.68 3.35 -1.36 1.7 0 0 Z " fill="#42729A" transform="translate(113,69)"/>
<path d="M0 0 C1.90318884 2.85478326 2.4619099 4.41941308 3.125 7.6875 C3.29257813 8.49574219 3.46015625 9.30398437 3.6328125 10.13671875 C3.75398438 10.75160156 3.87515625 11.36648437 4 12 C4.66 12 5.32 12 6 12 C7.72343897 17.51758342 7.18595793 23.4387212 7.18530273 29.16186523 C7.18748208 31.29496428 7.20563727 33.42753969 7.22460938 35.56054688 C7.22754527 36.93228992 7.22952875 38.30403539 7.23046875 39.67578125 C7.23663208 41.5307019 7.23663208 41.5307019 7.24291992 43.4230957 C6.98089399 47.28132873 6.1867559 50.3368429 5 54 C4.34 54 3.68 54 3 54 C3.144375 53.42636719 3.28875 52.85273438 3.4375 52.26171875 C6.91806218 36.33331265 5.834729 20.3962426 -0.29296875 5.34765625 C-1 3 -1 3 0 0 Z " fill="#457AA1" transform="translate(114,197)"/>
<path d="M0 0 C2.64 0 5.28 0 8 0 C8 0.99 8 1.98 8 3 C8.66 3 9.32 3 10 3 C10 3.66 10 4.32 10 5 C12.00797499 6.01749405 14.01654958 7.0074317 16.0703125 7.9296875 C16.74835938 8.24164063 17.42640625 8.55359375 18.125 8.875 C18.80820313 9.18179687 19.49140625 9.48859375 20.1953125 9.8046875 C22.37775735 11.25020292 23.02820858 12.6055861 24 15 C18.79557755 13.21590821 14.61828531 10.17271339 10.171875 7.01367188 C6.52676087 4.54865318 6.52676087 4.54865318 2.25 4.16796875 C1.5075 4.44253906 0.765 4.71710938 0 5 C-0.99 5.33 -1.98 5.66 -3 6 C-2.67 5.01 -2.34 4.02 -2 3 C-1.34 3 -0.68 3 0 3 C0 2.01 0 1.02 0 0 Z " fill="#467AA4" transform="translate(127,332)"/>
<path d="M0 0 C1.6484375 1.46484375 1.6484375 1.46484375 3.6484375 4.46484375 C1.9984375 4.46484375 0.3484375 4.46484375 -1.3515625 4.46484375 C-1.3515625 3.80484375 -1.3515625 3.14484375 -1.3515625 2.46484375 C-7.37668303 5.77368463 -7.37668303 5.77368463 -13.2890625 9.27734375 C-15.3515625 10.46484375 -15.3515625 10.46484375 -17.3515625 10.46484375 C-17.3515625 11.12484375 -17.3515625 11.78484375 -17.3515625 12.46484375 C-18.0115625 12.46484375 -18.6715625 12.46484375 -19.3515625 12.46484375 C-19.6815625 13.45484375 -20.0115625 14.44484375 -20.3515625 15.46484375 C-22.7265625 16.71484375 -22.7265625 16.71484375 -25.3515625 17.46484375 C-26.3415625 17.13484375 -27.3315625 16.80484375 -28.3515625 16.46484375 C-22.34551171 12.10468188 -16.19598136 7.95091354 -9.9765625 3.90234375 C-9.28691406 3.43650879 -8.59726563 2.97067383 -7.88671875 2.49072266 C-2.95354942 -0.67215327 -2.95354942 -0.67215327 0 0 Z " fill="#48769C" transform="translate(168.3515625,104.53515625)"/>
<path d="M0 0 C1.32 0.33 2.64 0.66 4 1 C-7.59440366 14.50103893 -7.59440366 14.50103893 -16 17 C-16.99 16.67 -17.98 16.34 -19 16 C-18.34 16 -17.68 16 -17 16 C-17 15.34 -17 14.68 -17 14 C-15.68 13.67 -14.36 13.34 -13 13 C-13 12.34 -13 11.68 -13 11 C-7.41538462 8.08076923 -7.41538462 8.08076923 -4.75 7.5625 C-2.81176338 7.1456283 -2.81176338 7.1456283 -1.8125 5.125 C-1.16535941 3.43247845 -0.57301136 1.71903407 0 0 Z " fill="#A3C44A" transform="translate(84,261)"/>
<path d="M0 0 C2 1 2 1 4 4 C3.34 4.66 2.68 5.32 2 6 C1.01 6 0.02 6 -1 6 C-1.02712066 7.43739513 -1.04645067 8.87493863 -1.0625 10.3125 C-1.07410156 11.11300781 -1.08570313 11.91351563 -1.09765625 12.73828125 C-1.09657855 15.16861334 -1.09657855 15.16861334 0 18 C-0.99 17.67 -1.98 17.34 -3 17 C-5.80525362 8.14130435 -5.80525362 8.14130435 -5 4 C-2.5 1.6875 -2.5 1.6875 0 0 Z " fill="#E0ECF2" transform="translate(182,194)"/>
<path d="M0 0 C-1.47643741 0.34522127 -2.95639782 0.67537487 -4.4375 1 C-5.67306641 1.2784375 -5.67306641 1.2784375 -6.93359375 1.5625 C-10.91802248 2.130979 -14.97522166 2 -19 2 C-19 9.92 -19 17.84 -19 26 C-19.33 26 -19.66 26 -20 26 C-20 17.75 -20 9.5 -20 1 C-17.4425 0.46375 -14.885 -0.0725 -12.25 -0.625 C-11.45110352 -0.7998291 -10.65220703 -0.9746582 -9.82910156 -1.15478516 C-5.91758963 -1.93019067 -3.32255649 -2.43071238 0 0 Z " fill="#366D96" transform="translate(68,302)"/>
<path d="M0 0 C1.6260287 0.06000106 3.25101549 0.1487885 4.875 0.25 C6.23238281 0.31960937 6.23238281 0.31960937 7.6171875 0.390625 C10 1 10 1 11.2109375 2.98046875 C11.47132812 3.64691406 11.73171875 4.31335938 12 5 C13.78228936 6.14209817 13.78228936 6.14209817 16 7 C21.80094787 9.50236967 21.80094787 9.50236967 22.875 12.1875 C22.91625 12.785625 22.9575 13.38375 23 14 C19.8142716 12.52742074 17.13354409 10.7055768 14.3125 8.625 C9.76179824 5.38609042 5.19573628 3.02056411 0 1 C0 0.67 0 0.34 0 0 Z " fill="#4579A3" transform="translate(73,162)"/>
<path d="M0 0 C1.65 0 3.3 0 5 0 C5 7.26 5 14.52 5 22 C2.69 22 0.38 22 -2 22 C-2 21.67 -2 21.34 -2 21 C-0.35 21 1.3 21 3 21 C2.88588196 18.24915453 2.75914051 15.49988053 2.625 12.75 C2.5940625 11.97269531 2.563125 11.19539062 2.53125 10.39453125 C2.27341758 4.92620093 2.27341758 4.92620093 0 0 Z " fill="#5F85A4" transform="translate(217,219)"/>
<path d="M0 0 C0.33 0.99 0.66 1.98 1 3 C-2.92325924 2.49915839 -6.71474781 1.85704756 -10.5625 0.9375 C-14.13782628 0.14095622 -17.32677846 -0.51254254 -21 0 C-23.37719693 1.87501931 -23.37719693 1.87501931 -25 4 C-25.33 2.68 -25.66 1.36 -26 0 C-18.32201952 -4.48921364 -8.21535464 -1.77972867 0 0 Z " fill="#4A7CA3" transform="translate(182,300)"/>
<path d="M0 0 C0.66 0 1.32 0 2 0 C1.95875 0.969375 1.9175 1.93875 1.875 2.9375 C1.85651067 7.44889724 2.89482578 11.64837652 4 16 C0.535 14.02 0.535 14.02 -3 12 C-3 9.03 -3 6.06 -3 3 C-2.34 3.66 -1.68 4.32 -1 5 C-0.67 3.35 -0.34 1.7 0 0 Z " fill="#E4ECF0" transform="translate(180,253)"/>
<path d="M0 0 C0.33 0.66 0.66 1.32 1 2 C3.54941373 2.31241371 6.00361513 2.51303421 8.5625 2.625 C9.62887695 2.68300781 9.62887695 2.68300781 10.71679688 2.7421875 C12.47742425 2.83671783 14.23867728 2.91945817 16 3 C16 3.66 16 4.32 16 5 C18.64 5 21.28 5 24 5 C24.33 5.99 24.66 6.98 25 8 C19.29129167 7.33182164 13.65490487 6.46165521 8 5.4375 C7.22527344 5.29892578 6.45054688 5.16035156 5.65234375 5.01757812 C3.76789645 4.68023879 1.8838993 4.34038635 0 4 C0 2.68 0 1.36 0 0 Z " fill="#43759E" transform="translate(48,154)"/>
<path d="M0 0 C1.81242052 -0.02687279 3.62495233 -0.04633715 5.4375 -0.0625 C6.44683594 -0.07410156 7.45617187 -0.08570313 8.49609375 -0.09765625 C11 0 11 0 12 1 C15.82221478 1.41423017 19.64198853 1.77327393 23.47460938 2.07421875 C24.27576172 2.15027344 25.07691406 2.22632813 25.90234375 2.3046875 C26.63960693 2.36640137 27.37687012 2.42811523 28.13647461 2.49169922 C30 3 30 3 32 6 C21.10649708 5.55717468 10.63226791 3.27000497 0 1 C0 0.67 0 0.34 0 0 Z " fill="#D5E5F1" transform="translate(189,213)"/>
<path d="M0 0 C1.16445606 3.49336818 0.77002998 4.62826149 -0.21484375 8.10546875 C-0.48876953 9.08837891 -0.76269531 10.07128906 -1.04492188 11.08398438 C-1.33947266 12.10814453 -1.63402344 13.13230469 -1.9375 14.1875 C-2.22818359 15.22326172 -2.51886719 16.25902344 -2.81835938 17.32617188 C-3.53803977 19.88634639 -4.2655212 22.44403911 -5 25 C-5.33 25 -5.66 25 -6 25 C-6.33 21.04 -6.66 17.08 -7 13 C-5.68 12.34 -4.36 11.68 -3 11 C-2.35258601 7.38177585 -2.35258601 7.38177585 -2.2734375 4.97265625 C-2 3 -2 3 0 0 Z " fill="#3B74A0" transform="translate(128,90)"/>
<path d="M0 0 C0.99 0 1.98 0 3 0 C3 1.32 3 2.64 3 4 C-10.53 4 -24.06 4 -38 4 C-38 3.67 -38 3.34 -38 3 C-25.46 3 -12.92 3 0 3 C0 2.01 0 1.02 0 0 Z " fill="#95C81A" transform="translate(492,104)"/>
<path d="M0 0 C0.66 0 1.32 0 2 0 C2 0.66 2 1.32 2 2 C2.598125 2.061875 3.19625 2.12375 3.8125 2.1875 C6.90339529 3.33554682 7.5880344 5.10547052 9 8 C9 8.66 9 9.32 9 10 C10.98 9.67 12.96 9.34 15 9 C15.33 9.66 15.66 10.32 16 11 C13.93977293 12.25085215 12.56476987 13.0294151 10.125 12.90234375 C6.94332779 11.55130279 5.70255436 9.30589293 3.75 6.5 C3.04359375 5.4996875 2.3371875 4.499375 1.609375 3.46875 C0 1 0 1 0 0 Z " fill="#3D719A" transform="translate(103,377)"/>
<path d="M0 0 C0.33 0 0.66 0 1 0 C1.23460937 0.85851562 1.46921875 1.71703125 1.7109375 2.6015625 C3.14108088 6.37194049 5.15264231 9.2459223 7.625 12.375 C8.04523438 12.92027344 8.46546875 13.46554687 8.8984375 14.02734375 C9.92500693 15.35721778 10.96149187 16.67942793 12 18 C11.01 18.33 10.02 18.66 9 19 C7.47784965 17.16073499 5.98409046 15.30709744 4.5 13.4375 C4.07074219 12.92380859 3.64148438 12.41011719 3.19921875 11.88085938 C0.0359919 7.8389584 -0.45897099 5.05505551 0 0 Z " fill="#40759D" transform="translate(155,304)"/>
<path d="M0 0 C1.32 0.33 2.64 0.66 4 1 C-2.60572918 5.4368481 -9.22257483 9.82927682 -16 14 C-16 13.01 -16 12.02 -16 11 C-15.4225 10.7525 -14.845 10.505 -14.25 10.25 C-11.89125622 9.07440364 -11.89125622 9.07440364 -10 7 C-8.03848345 5.03848345 -6.56854628 3.99427598 -4 3 C-3.01 3 -2.02 3 -1 3 C-0.67 2.01 -0.34 1.02 0 0 Z " fill="#42749E" transform="translate(199,180)"/>
<path d="M0 0 C0.66 0 1.32 0 2 0 C2 1.65 2 3.3 2 5 C2.763125 5.268125 3.52625 5.53625 4.3125 5.8125 C6.87380884 6.94424112 8.19692938 7.91223401 10 10 C13.0831351 8.80100302 16.06279492 7.52299523 19 6 C19 8 19 8 17.4375 10.125 C14.12610212 12.67222913 12.08105506 12.51940701 8 12 C6.3125 10.6875 6.3125 10.6875 5 9 C3.948125 8.3503125 3.948125 8.3503125 2.875 7.6875 C0.298964 5.3690676 0.29907466 3.36458996 0 0 Z " fill="#42779F" transform="translate(120,116)"/>
<path d="M0 0 C0.33 0.99 0.66 1.98 1 3 C-0.29296875 5.375 -0.29296875 5.375 -2.1875 8 C-2.79980469 8.86625 -3.41210938 9.7325 -4.04296875 10.625 C-5.87773165 12.85161844 -7.6188261 14.39495152 -10 16 C-10.66 15.67 -11.32 15.34 -12 15 C-8.04 10.05 -4.08 5.1 0 0 Z " fill="#4A7BA2" transform="translate(108,76)"/>
<path d="M0 0 C4.14533384 1.72978128 7.30108258 4.56110779 10.6875 7.4375 C11.28111328 7.92798828 11.87472656 8.41847656 12.48632812 8.92382812 C16.87821594 12.63464782 16.87821594 12.63464782 18 16 C17.34 16 16.68 16 16 16 C16 15.34 16 14.68 16 14 C15.01 13.67 14.02 13.34 13 13 C11.98025975 12.02013786 10.98307493 11.01664334 10 10 C7.67683751 8.20668158 5.32242779 6.46120885 2.9609375 4.71875 C1 3 1 3 0 0 Z " fill="#A4C355" transform="translate(70,183)"/>
<path d="M0 0 C3.72155995 3.20824133 5.37911471 6.38047692 7 11 C7.1875 13.9375 7.1875 13.9375 7 16 C6.01 15.67 5.02 15.34 4 15 C2.83203125 12.12890625 2.83203125 12.12890625 1.8125 8.5625 C1.29623047 6.80099609 1.29623047 6.80099609 0.76953125 5.00390625 C0 2 0 2 0 0 Z " fill="#A0C240" transform="translate(88,200)"/>
<path d="M0 0 C0.66 0 1.32 0 2 0 C2.66 2.31 3.32 4.62 4 7 C6.97 7.33 9.94 7.66 13 8 C13 8.66 13 9.32 13 10 C11 11.375 11 11.375 8 12 C4.82573156 10.50967803 2.32979686 8.61889574 0 6 C-0.5 2.625 -0.5 2.625 0 0 Z " fill="#D7E9F4" transform="translate(122,115)"/>
<path d="M0 0 C0.99 0.33 1.98 0.66 3 1 C3 5.95 3 10.9 3 16 C2.01 16 1.02 16 0 16 C0 10.72 0 5.44 0 0 Z " fill="#0F0F0F" transform="translate(464,31)"/>
<path d="M0 0 C0.33 0 0.66 0 1 0 C0.8858134 1.93816735 0.75826577 3.87555099 0.625 5.8125 C0.55539063 6.89144531 0.48578125 7.97039062 0.4140625 9.08203125 C0 12 0 12 -2 15 C-4.125 15.6875 -4.125 15.6875 -6 16 C-5.71382813 15.29488281 -5.42765625 14.58976562 -5.1328125 13.86328125 C-3.99523169 10.98794768 -2.92607644 8.09547814 -1.875 5.1875 C-1.34519531 3.72376953 -1.34519531 3.72376953 -0.8046875 2.23046875 C-0.53914063 1.49441406 -0.27359375 0.75835937 0 0 Z " fill="#447CAB" transform="translate(116,252)"/>
<path d="M0 0 C0 5.28 0 10.56 0 16 C-0.99 15.67 -1.98 15.34 -3 15 C-3 10.38 -3 5.76 -3 1 C-1 0 -1 0 0 0 Z " fill="#3773A6" transform="translate(178,250)"/>
<path d="M0 0 C0.598125 0.309375 1.19625 0.61875 1.8125 0.9375 C4.08956772 2.10209704 4.08956772 2.10209704 7 3 C7.9140625 4.671875 7.9140625 4.671875 8.625 6.75 C8.87121094 7.46671875 9.11742188 8.1834375 9.37109375 8.921875 C10.0791494 11.26153715 10.62257545 13.58448288 11 16 C6.84430926 10.9538041 3.31199289 5.63038792 0 0 Z " fill="#4176A1" transform="translate(102,182)"/>
<path d="M0 0 C3.91211733 1.15585285 6.8745041 2.35534962 10 5 C7.45297384 6.27351308 6.5717055 5.80191925 3.875 5.0625 C3.15054688 4.86785156 2.42609375 4.67320313 1.6796875 4.47265625 C1.12539062 4.31667969 0.57109375 4.16070312 0 4 C0 4.66 0 5.32 0 6 C-1.32 5.67 -2.64 5.34 -4 5 C-2.68 3.35 -1.36 1.7 0 0 Z " fill="#477A9F" transform="translate(113,69)"/>
<path d="M0 0 C1.65 0 3.3 0 5 0 C4.01 1.485 4.01 1.485 3 3 C2.7225417 8.45667989 3.22857672 13.60003703 4 19 C3.34 19 2.68 19 2 19 C1.66600746 16.02090586 1.3327744 13.04173024 1 10.0625 C0.90460938 9.21236328 0.80921875 8.36222656 0.7109375 7.48632812 C0.62070313 6.67744141 0.53046875 5.86855469 0.4375 5.03515625 C0.35371094 4.2862915 0.26992187 3.53742676 0.18359375 2.76586914 C0 1 0 1 0 0 Z " fill="#3174A6" transform="translate(119,338)"/>
<path d="M0 0 C1.1079276 3.32378281 1.11204374 5.66386877 0 9 C-3.20689655 12 -3.20689655 12 -6 12 C-6.33 12.99 -6.66 13.98 -7 15 C-7.66 14.67 -8.32 14.34 -9 14 C-8.15115234 12.86111328 -8.15115234 12.86111328 -7.28515625 11.69921875 C-6.18494141 10.20841797 -6.18494141 10.20841797 -5.0625 8.6875 C-4.33160156 7.70136719 -3.60070312 6.71523437 -2.84765625 5.69921875 C-0.87469344 3.08228137 -0.87469344 3.08228137 0 0 Z " fill="#D6E5EE" transform="translate(181,118)"/>
<path d="M0 0 C-1.56116819 0.33951619 -3.12401338 0.67132544 -4.6875 1 C-5.99267578 1.2784375 -5.99267578 1.2784375 -7.32421875 1.5625 C-9.93712964 1.98972047 -12.35813038 2.07616201 -15 2 C-15.33 1.34 -15.66 0.68 -16 0 C-14.08655626 -0.39111271 -12.16903447 -0.76231167 -10.25 -1.125 C-9.18265625 -1.33382813 -8.1153125 -1.54265625 -7.015625 -1.7578125 C-3.86311649 -2.01099324 -2.60040934 -1.70415175 0 0 Z " fill="#497C9F" transform="translate(68,302)"/>
<path d="M0 0 C2.64 0 5.28 0 8 0 C7.01 0.495 7.01 0.495 6 1 C6 1.66 6 2.32 6 3 C3 4 0 5 -3 6 C-2.67 5.01 -2.34 4.02 -2 3 C-1.34 3 -0.68 3 0 3 C0 2.01 0 1.02 0 0 Z " fill="#3473A5" transform="translate(127,332)"/>
<path d="M0 0 C1.24727575 2.4945515 0.88934597 3.39371494 0.25 6.0625 C0.09015625 6.77535156 -0.0696875 7.48820313 -0.234375 8.22265625 C-0.61335938 9.10244141 -0.61335938 9.10244141 -1 10 C-1.99 10.33 -2.98 10.66 -4 11 C-3.38461538 3.49230769 -3.38461538 3.49230769 -1.4375 1 C-0.963125 0.67 -0.48875 0.34 0 0 Z " fill="#96C915" transform="translate(93,242)"/>
<path d="M0 0 C4.62 0 9.24 0 14 0 C14.33 0.66 14.66 1.32 15 2 C14.39671875 1.98839844 13.7934375 1.97679687 13.171875 1.96484375 C12.37265625 1.95582031 11.5734375 1.94679687 10.75 1.9375 C9.96109375 1.92589844 9.1721875 1.91429687 8.359375 1.90234375 C4.65344068 2.05573507 2.66315194 2.33684806 0 5 C0 3.35 0 1.7 0 0 Z " fill="#2B6FA9" transform="translate(49,59)"/>
<path d="M0 0 C0.33 0.66 0.66 1.32 1 2 C-0.47559669 6.42679007 -2.90057368 6.91432696 -7 9 C-7.66 9 -8.32 9 -9 9 C-9 8.34 -9 7.68 -9 7 C-8.195625 6.731875 -7.39125 6.46375 -6.5625 6.1875 C-5.716875 5.795625 -4.87125 5.40375 -4 5 C-3.67 4.01 -3.34 3.02 -3 2 C-2.01 1.34 -1.02 0.68 0 0 Z " fill="#38719E" transform="translate(128,378)"/>
<path d="M0 0 C0.33 0 0.66 0 1 0 C1.125 2.875 1.125 2.875 1 6 C-1 8 -1 8 -3.05859375 8.265625 C-3.84363281 8.26046875 -4.62867188 8.2553125 -5.4375 8.25 C-6.61119141 8.25773437 -6.61119141 8.25773437 -7.80859375 8.265625 C-10 8 -10 8 -13 6 C-9.37 6.33 -5.74 6.66 -2 7 C-1.67 5.68 -1.34 4.36 -1 3 C-0.67 2.01 -0.34 1.02 0 0 Z " fill="#D7E7F1" transform="translate(206,300)"/>
<path d="M0 0 C1 3 1 3 0.07421875 5.4453125 C-0.38339844 6.32960937 -0.84101562 7.21390625 -1.3125 8.125 C-1.98732422 9.45917969 -1.98732422 9.45917969 -2.67578125 10.8203125 C-4 13 -4 13 -6 14 C-5.41892368 10.2397015 -4.34800504 7.46964968 -2.4375 4.1875 C-1.98246094 3.39730469 -1.52742188 2.60710937 -1.05859375 1.79296875 C-0.53458984 0.90544922 -0.53458984 0.90544922 0 0 Z " fill="#9FBF4D" transform="translate(94,246)"/>
<path d="M0 0 C0.98484375 0.01804687 1.9696875 0.03609375 2.984375 0.0546875 C4.10585937 0.08949219 4.10585937 0.08949219 5.25 0.125 C5.25 0.455 5.25 0.785 5.25 1.125 C4.57453125 1.15078125 3.8990625 1.1765625 3.203125 1.203125 C-2.50763932 1.46821728 -2.50763932 1.46821728 -7.375 4.1875 C-7.82875 4.826875 -8.2825 5.46625 -8.75 6.125 C-9.08 4.805 -9.41 3.485 -9.75 2.125 C-6.40060119 0.09941119 -3.88037449 -0.09238987 0 0 Z " fill="#376D98" transform="translate(165.75,297.875)"/>
<path d="M0 0 C0 0.99 0 1.98 0 3 C-8.42857143 6.42857143 -8.42857143 6.42857143 -13 6 C-10.11980724 4.53347983 -7.20691485 3.17952126 -4.25 1.875 C-3.05117187 1.34519531 -3.05117187 1.34519531 -1.828125 0.8046875 C-1.22484375 0.53914063 -0.6215625 0.27359375 0 0 Z " fill="#477CA4" transform="translate(81,294)"/>
<path d="M0 0 C0.33 0 0.66 0 1 0 C1.1875 2.375 1.1875 2.375 1 5 C0.01 5.66 -0.98 6.32 -2 7 C-3.19232613 9.05003955 -3.19232613 9.05003955 -4 11 C-4.99 10.34 -5.98 9.68 -7 9 C-5.85793642 7.49712782 -4.71125043 5.99776716 -3.5625 4.5 C-2.92441406 3.6646875 -2.28632812 2.829375 -1.62890625 1.96875 C-0.82259766 0.99421875 -0.82259766 0.99421875 0 0 Z " fill="#467BA3" transform="translate(109,268)"/>
<path d="M0 0 C5.28137429 0.51525603 8.57221156 2.25477117 13 5 C12.67 5.66 12.34 6.32 12 7 C11.0925 6.525625 10.185 6.05125 9.25 5.5625 C6.73572051 4.35371179 4.70431791 3.52006114 2 3 C2 2.34 2 1.68 2 1 C1.34 0.67 0.68 0.34 0 0 Z " fill="#9DBF45" transform="translate(58,179)"/>
<path d="M0 0 C0 0.66 0 1.32 0 2 C-6.625 5.875 -6.625 5.875 -10 7 C-9.375 4.625 -9.375 4.625 -8 2 C-5.23085693 0.78849991 -3.03028259 0 0 0 Z " fill="#2970A8" transform="translate(186,159)"/>
<path d="M0 0 C3.39417765 3.12621626 5.6062718 5.56541027 7 10 C5.68 9.34 4.36 8.68 3 8 C3 7.01 3 6.02 3 5 C2.01 4.67 1.02 4.34 0 4 C0 2.68 0 1.36 0 0 Z " fill="#DDEAF4" transform="translate(102,183)"/>
<path d="M0 0 C2 3 2 3 1.9375 5.5 C0.69472695 8.81406146 -0.8472566 9.53897257 -4 11 C-4.66 11 -5.32 11 -6 11 C-6 10.34 -6 9.68 -6 9 C-5.38125 8.814375 -4.7625 8.62875 -4.125 8.4375 C-0.94397134 6.28562767 -0.80548053 3.62466237 0 0 Z " fill="#4E7696" transform="translate(210,168)"/>
<path d="M0 0 C-3.222107 3.8665284 -6.14922412 4.88059018 -11 6 C-10.67 5.01 -10.34 4.02 -10 3 C-9.34 3 -8.68 3 -8 3 C-8 2.34 -8 1.68 -8 1 C-3.375 -1.125 -3.375 -1.125 0 0 Z " fill="#2572AE" transform="translate(147,121)"/>
<path d="M0 0 C3.5875213 1.33250791 6.8364623 2.830717 10 5 C10 5.66 10 6.32 10 7 C10.66 7.33 11.32 7.66 12 8 C8.83548038 7.36567062 6.48312221 6.26817072 3.75 4.5625 C3.04359375 4.13066406 2.3371875 3.69882812 1.609375 3.25390625 C1.07828125 2.84011719 0.5471875 2.42632812 0 2 C0 1.34 0 0.68 0 0 Z " fill="#44799D" transform="translate(178,266)"/>
<path d="M0 0 C2 1 2 1 2.8515625 3.06640625 C3.10679687 3.89011719 3.36203125 4.71382812 3.625 5.5625 C3.88539063 6.38878906 4.14578125 7.21507812 4.4140625 8.06640625 C4.60742188 8.70449219 4.80078125 9.34257812 5 10 C4.01 10 3.02 10 2 10 C2 9.01 2 8.02 2 7 C1.34 7 0.68 7 0 7 C0 4.69 0 2.38 0 0 Z " fill="#4679A3" transform="translate(205,157)"/>
<path d="M0 0 C0.33 0 0.66 0 1 0 C1.28875 0.94875 1.5775 1.8975 1.875 2.875 C2.76825109 6.05211578 2.76825109 6.05211578 5 8 C5 8.99 5 9.98 5 11 C1.125 9.25 1.125 9.25 0 7 C-0.04022391 4.6670134 -0.04320247 2.33293334 0 0 Z " fill="#356FA0" transform="translate(155,304)"/>
<path d="M0 0 C0.66 0.33 1.32 0.66 2 1 C1.67 1.66 1.34 2.32 1 3 C0.34 3 -0.32 3 -1 3 C-1.33 3.99 -1.66 4.98 -2 6 C-2.66 6 -3.32 6 -4 6 C-4.33 6.99 -4.66 7.98 -5 9 C-5.3125 6.75 -5.3125 6.75 -5 4 C-2.5 1.6875 -2.5 1.6875 0 0 Z " fill="#336F9F" transform="translate(98,91)"/>
<path d="M0 0 C-1.75 1.5625 -1.75 1.5625 -4 3 C-6.1875 2.8125 -6.1875 2.8125 -8 2 C-8.33 1.34 -8.66 0.68 -9 0 C-5.62182575 -0.84454356 -3.32534757 -1.10844919 0 0 Z " fill="#5380A5" transform="translate(119,387)"/>
<path d="M0 0 C2.39763185 2.39763185 2.34280586 3.33273498 2.625 6.625 C2.69976562 7.44226563 2.77453125 8.25953125 2.8515625 9.1015625 C2.90054688 9.72804688 2.94953125 10.35453125 3 11 C2.67 10.34 2.34 9.68 2 9 C1.34 8.67 0.68 8.34 0 8 C0 5.36 0 2.72 0 0 Z " fill="#3570A2" transform="translate(125,361)"/>
<path d="M0 0 C0.33 0 0.66 0 1 0 C1 3.63 1 7.26 1 11 C0.34 11 -0.32 11 -1 11 C-1.33 11.66 -1.66 12.32 -2 13 C-1.48041715 8.62065881 -0.94324258 4.31196609 0 0 Z " fill="#9AC132" transform="translate(95,235)"/>
<path d="M0 0 C2.31 0.33 4.62 0.66 7 1 C7 2.65 7 4.3 7 6 C3.73539027 4.19587357 2.11070205 3.16605307 0 0 Z " fill="#E7F0D0" transform="translate(77,187)"/>
<path d="M0 0 C0.66 0 1.32 0 2 0 C2.33 1.32 2.66 2.64 3 4 C2.01 4.33 1.02 4.66 0 5 C0 6.65 0 8.3 0 10 C-0.33 10 -0.66 10 -1 10 C-1.33 7.69 -1.66 5.38 -2 3 C-1.34 3 -0.68 3 0 3 C0 2.01 0 1.02 0 0 Z " fill="#E2EBF0" transform="translate(68,57)"/>
<path d="M0 0 C0.66 0.66 1.32 1.32 2 2 C0.515 4.475 0.515 4.475 -1 7 C-2.32 6.34 -3.64 5.68 -5 5 C-3.35 3.35 -1.7 1.7 0 0 Z " fill="#EAF2F7" transform="translate(178,344)"/>
<path d="M0 0 C0.33 0.99 0.66 1.98 1 3 C0.01 3.33 -0.98 3.66 -2 4 C-2 4.99 -2 5.98 -2 7 C-3.65 6.67 -5.3 6.34 -7 6 C-6.21625 5.38125 -5.4325 4.7625 -4.625 4.125 C-2.03162353 2.10141339 -2.03162353 2.10141339 0 0 Z " fill="#E4EEF3" transform="translate(201,181)"/>
<path d="M0 0 C0.66 0.33 1.32 0.66 2 1 C-0.475 4.465 -0.475 4.465 -3 8 C-3.33 6.68 -3.66 5.36 -4 4 C-2.0625 1.75 -2.0625 1.75 0 0 Z " fill="#D9EAF5" transform="translate(95,90)"/>
<path d="M0 0 C0.33 0 0.66 0 1 0 C1.36552803 1.41377782 1.71695495 2.83120576 2.0625 4.25 C2.25972656 5.03890625 2.45695312 5.8278125 2.66015625 6.640625 C3.01497267 9.10394822 2.76877544 10.65604132 2 13 C-0.20914 9.68629 -0.22481553 8.6553979 -0.125 4.8125 C-0.10695313 3.91144531 -0.08890625 3.01039062 -0.0703125 2.08203125 C-0.04710938 1.39496094 -0.02390625 0.70789063 0 0 Z " fill="#2871AC" transform="translate(68,81)"/>
<path d="M0 0 C2.475 0.99 2.475 0.99 5 2 C5 2.66 5 3.32 5 4 C5.99 4.33 6.98 4.66 8 5 C7.01 6.485 7.01 6.485 6 8 C6 7.01 6 6.02 6 5 C4.68 4.67 3.36 4.34 2 4 C2 3.34 2 2.68 2 2 C1.34 2 0.68 2 0 2 C0 1.34 0 0.68 0 0 Z " fill="#2E6B9E" transform="translate(122,74)"/>
<path d="M0 0 C0.66 0.33 1.32 0.66 2 1 C1.01 3.31 0.02 5.62 -1 8 C-1.99 7.67 -2.98 7.34 -4 7 C-2.92598892 4.08482708 -2.22189824 2.22189824 0 0 Z " fill="#3D75A5" transform="translate(208,292)"/>
<path d="M0 0 C0.99 0 1.98 0 3 0 C1.25 3.875 1.25 3.875 -1 5 C-1.66 4.67 -2.32 4.34 -3 4 C-3 4.66 -3 5.32 -3 6 C-3.66 5.67 -4.32 5.34 -5 5 C-3.625 3.5 -3.625 3.5 -2 2 C-1.34 2 -0.68 2 0 2 C0 1.34 0 0.68 0 0 Z " fill="#2270AC" transform="translate(99,283)"/>
<path d="M0 0 C2.31 0 4.62 0 7 0 C7.33 0.99 7.66 1.98 8 3 C5.36 2.67 2.72 2.34 0 2 C0 1.34 0 0.68 0 0 Z " fill="#467EAA" transform="translate(65,159)"/>
<path d="M0 0 C0 3 0 3 -1.1875 4.6875 C-3.55741722 6.40364695 -5.14025666 6.23187108 -8 6 C-5.63379989 3.38472619 -3.057952 1.73559438 0 0 Z " fill="#2D6FAA" transform="translate(159,110)"/>
<path d="M0 0 C0.33 1.32 0.66 2.64 1 4 C-1.64 3.01 -4.28 2.02 -7 1 C-3.375 -1.125 -3.375 -1.125 0 0 Z " fill="#3374A9" transform="translate(158,347)"/>
<path d="M0 0 C-3.31371 2.20914 -4.3446021 2.22481553 -8.1875 2.125 C-9.08855469 2.10695312 -9.98960937 2.08890625 -10.91796875 2.0703125 C-11.60503906 2.04710937 -12.29210937 2.02390625 -13 2 C-8.7920942 -0.80527053 -4.85771358 -1.68151624 0 0 Z " fill="#CEDFEC" transform="translate(220,242)"/>
<path d="M0 0 C1.32 0.33 2.64 0.66 4 1 C2.87926138 1.83905565 1.75325453 2.67107831 0.625 3.5 C-0.00148437 3.9640625 -0.62796875 4.428125 -1.2734375 4.90625 C-3 6 -3 6 -5 6 C-4.67 5.01 -4.34 4.02 -4 3 C-3.01 3 -2.02 3 -1 3 C-0.67 2.01 -0.34 1.02 0 0 Z " fill="#5180A4" transform="translate(199,180)"/>
<path d="M0 0 C-0.33 1.32 -0.66 2.64 -1 4 C-2.98 4 -4.96 4 -7 4 C-3.17391304 0 -3.17391304 0 0 0 Z " fill="#D6E5F0" transform="translate(128,383)"/>
<path d="M0 0 C0.66 0.33 1.32 0.66 2 1 C1.34 2.98 0.68 4.96 0 7 C-1.32 6.67 -2.64 6.34 -4 6 C-3.34 6 -2.68 6 -2 6 C-1.855625 5.195625 -1.71125 4.39125 -1.5625 3.5625 C-1 1 -1 1 0 0 Z " fill="#96C81B" transform="translate(88,254)"/>
<path d="M0 0 C2.79872437 2.52788007 4.45773019 4.20411134 5 8 C3.0625 7.375 3.0625 7.375 1 6 C0.25 2.875 0.25 2.875 0 0 Z " fill="#A4C455" transform="translate(88,200)"/>
<path d="M0 0 C0.66 1.32 1.32 2.64 2 4 C1.34 4.66 0.68 5.32 0 6 C-0.99 6 -1.98 6 -3 6 C-1.125 1.125 -1.125 1.125 0 0 Z " fill="#D9E6EE" transform="translate(170,135)"/>
</svg>
